<svg xmlns="http://www.w3.org/2000/svg" width="226" height="48" viewBox="0 0 226 48">
    <path fill="#FFF" fill-rule="evenodd" d="M79.084 34.014c-.15-.414-.1 3.866-8.013 6.747a16.4 16.4 0 0 1-15.832-2.842c-5.628-5.078-7.92-14.307-7.636-23.04.106-3.616.449-7.22 1.026-10.791a25.5 25.5 0 0 0-8.176 4.652 39.312 39.312 0 0 0-9.466 11.757c-3.447 6.718-3.541 9.314-4.016 9.372-.089.142-.181-2.774 2.707-10.041A36.146 36.146 0 0 1 38.87 6.845 29.432 29.432 0 0 1 53.451 0a85.294 85.294 0 0 0-2.309 16.036c-.194 6.1 1.434 15.542 5.849 19.774a15.2 15.2 0 0 0 13.639 3.563c7.486-1.872 8.338-5.7 8.454-5.36v.001zm-.3 8.553c-.022-.12-2.2 2.142-9.292 4.2-7.431 2.153-18.62 1.377-31.748-5.546a30.751 30.751 0 0 0-29.393.1c-4.448 2.553-7.847 6.3-8.343 6.183a39.009 39.009 0 0 1 7.4-7.587c5.111-4.111 15.9-9.449 31.893-1.688s23.245 7.822 29.877 6.883a35.788 35.788 0 0 0 9.6-2.549l.006.004zm-52.106-23.56c-.01.4-.327 7.7-8.481 12.074a17.919 17.919 0 0 1-11.233 1.755 12.538 12.538 0 0 1-3.236-1.208c-.093-.51 6.713-.114 13.478-3.543 6.765-3.429 9.184-9.135 9.472-9.078zm1.03-8.122c.105.072.625 5-5.145 10.164a9.545 9.545 0 0 1-9.694 1.63c-.032-.121 5.4-1.368 9.123-4.733a25.353 25.353 0 0 0 5.716-7.061zm-3.53-.793a18.566 18.566 0 0 0 4.423-5.957c.205-.074.423 3.743-2.471 6.944-3.05 3.373-6.872 2.711-6.9 2.5a32.814 32.814 0 0 0 4.944-3.482l.004-.005zM46.34 47.647c-1.8.365-3.643.457-5.47.273-3.8-.072-9.3-2.4-16.476-4.25-7.4-1.61-12.695.687-15.962 1.934-3.29 1.4-4.8 2.168-4.815 2.133a25.948 25.948 0 0 1 4.183-3.3c2.941-1.838 8.614-5.617 17.015-3.821 7.9 2.055 12.71 5.295 16.287 6a44.5 44.5 0 0 0 5.238 1.026v.005zm49.476-32.705h-1.154V29.31c0 4.754 0 4.989 3.037 5.252.163 0 .232.7-.032.634a36.609 36.609 0 0 0-4.1-.2 35.091 35.091 0 0 0-4.854.2c-.329.034-.13-.634-.03-.634 2.9-.333 3.067-.263 3.067-5.252V14.943h-3.7c-4.82 0-5.612.764-6.5 1.895-.1.1-.627-.13-.495-.23a21.147 21.147 0 0 1 3.664-3.194c.792 0 4.458.365 6.569.365h7.762c4.82 0 5.61-.729 6.5-1.861.1-.1.66.1.461.266a21.691 21.691 0 0 1-3.631 3.125c-.793 0-4.456-.366-6.571-.366l.007-.001zm20.369 20.185c-.927 0-2.478-.13-4.327-.13-2.508 0-5.512 0-7.363.13-.2 0-.1-.629 0-.629 2.512-.3 2.742-.631 2.742-3.794v-7.511c0-3.16-.23-3.56-2.742-3.827-.1 0-.2-.7 0-.665 1.851.165 4.757.2 7.268.2 1.781 0 3.5-.067 5.016-.2a6.178 6.178 0 0 0-.168 1.731c0 .266-.03 1 0 1.162a.977.977 0 0 1-.624.034c-.2-1.095-.594-1.63-3.8-1.63h-2.147a20.543 20.543 0 0 0-.134 3.06v3.059h1.653c2.771 0 2.971-.067 3.235-1.128 0-.07.626-.1.595.065-.102.65-.147 1.306-.135 1.963v1.428a1.868 1.868 0 0 1-.624.035c-.232-1.3-.43-1.4-3.071-1.4h-1.628v3.29c0 3.193.166 3.493 1.288 3.493h1.291c3.793 0 3.894-.537 4.258-2.166.221-.042.45-.018.658.07-.1.634-.362 2.26-.526 2.763a.581.581 0 0 1-.694.593l-.021.004zm12.999-7.187a7.54 7.54 0 0 1-.96-.033V30.7c0 2.994.23 3.6 2.477 3.794.1 0 .163.7-.034.629-.759-.1-2.443-.13-3.5-.13a39.722 39.722 0 0 0-4.126.13c-.2.07-.1-.629 0-.629 2.147-.232 2.542-.631 2.542-3.794v-7.511c0-2.9-.529-3.526-1.685-3.526a5.2 5.2 0 0 0-.923.1c-.132.065-.3-.569-.1-.6a32.751 32.751 0 0 1 6.7-.466c4.456 0 6.833 1.433 6.833 4.091a4.726 4.726 0 0 1-3.137 4.124c1.323 3.39 4.46 7.979 7.331 7.979.1 0 .2.634 0 .634-5.414 0-8.484-3.859-9.576-7.783-.61.11-1.226.178-1.845.2l.003-.002zm-.765-8.21a14.854 14.854 0 0 0-.2 3.226v3.989c.3 0 .5.034.924.034 3.269 0 4.556-1.263 4.556-3.522 0-2.8-1.583-3.792-4.456-3.792a7.41 7.41 0 0 0-.826.065h.002zM148.462 35a39.43 39.43 0 0 0-4.128.13c-.262.071-.1-.629-.033-.629 2.18-.23 2.512-.663 2.512-3.793v-7.512c0-3.16-.332-3.591-2.512-3.826-.067 0-.195-.665.067-.631 1.36.148 2.727.204 4.094.166.992 0 2.707-.065 3.465-.166.266-.034.135.631.068.631-2.276.169-2.511.864-2.511 3.826V30.7c0 2.963.235 3.6 2.511 3.793.067 0 .2.664-.068.629-.758-.1-2.473-.13-3.465-.13V35zm15.718-4.3c0 5.424-1.685 7.819-6.735 9.645-.266.1-.333-.529-.266-.563 3.568-1.928 4.326-4.126 4.326-9.082v-7.481c0-3.16-.331-3.59-2.512-3.858-.064 0-.195-.63.067-.6a30.09 30.09 0 0 0 4.1.134c.99 0 2.707-.035 3.5-.134.2-.067.132.6.036.6-2.282.2-2.514.865-2.514 3.858V30.7h-.002zm7.179-3.49a9.188 9.188 0 0 1 9.408-8.811c5.084 0 8.946 3.955 8.946 8.313a9.161 9.161 0 0 1-9.409 8.778c-5.05 0-8.945-3.923-8.945-8.28zm2.771-1.062c0 5.453 3.467 8.28 6.768 8.28 3.53 0 6.107-2.2 6.107-6.651 0-5.453-3.5-8.347-6.8-8.347-3.533 0-6.074 2.229-6.074 6.718h-.001zm48.636 12.053c-.96.336-1.97.503-2.988.494-3.884 0-8.208-3.422-16.5-11.369l-1.216-1.175 2.584-2.732c2.768-2.925 3.5-3.888 5.71-4.057.1 0 .23-.631-.1-.6-.78.075-1.563.109-2.346.1a27.687 27.687 0 0 1-3.037-.1c-.2-.065-.162.568 0 .6.992.134 1.687.2 1.257.8a26.692 26.692 0 0 1-2.546 2.962l-3.8 4.094-.024.011v-4.04c0-2.962.266-3.657 2.247-3.826.1 0 .161-.665-.036-.6a32.029 32.029 0 0 1-3.3.135 42.157 42.157 0 0 1-4.324-.135c-.2-.065-.165.568 0 .6 2.476.266 2.742.666 2.742 3.826V30.7c0 3.195-.266 3.527-2.742 3.793-.165.035-.2.7 0 .629 1.054-.13 2.871-.13 4.324-.13 1.089 0 2.509.034 3.3.13.2.071.132-.629.036-.629-1.981-.165-2.247-.83-2.247-3.793v-3.383l3.34 3.245c5.192 5.047 10.066 8.987 14.95 8.987a15.9 15.9 0 0 0 4.9-.83c.24-.031-.032-.549-.184-.518zM222.377 35a39.48 39.48 0 0 0-4.13.13c-.26.071-.094-.629-.028-.629 2.177-.23 2.5-.663 2.5-3.793v-7.512c0-3.16-.328-3.591-2.5-3.826-.066 0-.2-.665.064-.631 1.36.148 2.727.204 4.094.166.99 0 2.7-.065 3.467-.166.263-.034.13.631.065.631-2.278.169-2.512.864-2.512 3.826V30.7c0 2.963.234 3.6 2.512 3.793.065 0 .2.664-.065.629-.764-.1-2.477-.13-3.467-.13V35z"/>
</svg>
