<?xml version="1.0" encoding="UTF-8"?>
<svg width="6px" height="16px" viewBox="0 0 6 16" version="1.1" xmlns="http://www.w3.org/2000/svg" xmlns:xlink="http://www.w3.org/1999/xlink">
    <!-- Generator: sketchtool 46.2 (44496) - http://www.bohemiancoding.com/sketch -->
    <title>93901B65-1596-4BDF-8A80-82D5797929CF</title>
    <desc>Created with sketchtool.</desc>
    <defs></defs>
    <g id="Main" stroke="none" stroke-width="1" fill="none" fill-rule="evenodd">
        <g id="Main-1440" transform="translate(-533.000000, -2274.000000)" fill="#E25928">
            <g id="Block-2" transform="translate(150.000000, 1376.000000)">
                <g id="Group-6" transform="translate(0.000000, 641.000000)">
                    <g id="mans" transform="translate(373.000000, 257.000000)">
                        <g id="Group-7">
                            <path d="M12.908,3.05 C13.4528301,3.05678809 13.9598952,2.77239716 14.2381888,2.30395452 C14.5164825,1.83551188 14.5237253,1.25418513 14.2571888,0.778954447 C13.9906524,0.303723763 13.4908301,0.00678800138 12.946,0 C12.1138551,0.0686792818 11.457695,0.736754055 11.404,1.57 C11.4473749,2.37794595 12.0994609,3.01962629 12.908,3.05 L12.908,3.05 Z M15.954,7.49 L15.954,5.19 C15.9799275,4.80710508 15.9799275,4.42289492 15.954,4.04 C15.8535609,3.58742269 15.4505755,3.26653458 14.987,3.27 L11.321,3.27 C10.9939011,3.20885777 10.656372,3.29278392 10.396,3.5 C10.004,3.94 10.044,3.98 10.044,5.21 L10.044,7.55 C10.044,8.16 9.944,9.1 10.552,9.1 C11.133,9.1 11.127,8.69 11.127,8.08 C11.127,7.21 11.127,6.99 11.127,6.47 C11.127,5.92 11.095,5.82 11.208,5.82 C11.321,5.82 11.321,5.83 11.321,6.42 C11.321,6.97 11.321,14.72 11.321,15.17 C11.3039947,15.3839275 11.3814638,15.5945822 11.5330181,15.7465211 C11.6845725,15.8984601 11.89503,15.976463 12.109,15.96 C12.3173949,15.9918801 12.5292371,15.9301671 12.6879068,15.7913552 C12.8465764,15.6525434 12.9358987,15.4507832 12.932,15.24 L12.932,11.21 C12.932,10.83 12.945,10.64 13.041,10.64 C13.137,10.64 13.126,10.83 13.126,11.21 L13.126,15.24 C13.1658353,15.6711871 13.5279774,16.0008015 13.961,16 C14.343397,15.9346427 14.6417471,15.6330759 14.703,15.25 C14.703,13.71 14.712,6.88 14.712,6.4 C14.6647027,6.20063708 14.6917237,5.99086869 14.788,5.81 C14.888,5.81 14.888,5.9 14.888,6.27 L14.888,7.75 C14.888,8.76 15.046,9.03 15.432,9.03 C16,9.03 15.954,8.04 15.954,7.49 L15.954,7.49 Z" id="man"></path>
                        </g>
                    </g>
                </g>
            </g>
        </g>
    </g>
</svg>