<?xml version="1.0" encoding="UTF-8"?>
<svg width="12px" height="12px" viewBox="0 0 12 12" version="1.1" xmlns="http://www.w3.org/2000/svg" xmlns:xlink="http://www.w3.org/1999/xlink">
    <!-- Generator: sketchtool 46.2 (44496) - http://www.bohemiancoding.com/sketch -->
    <title>69342854-3162-4442-9DFC-EC23CFF3BA2C</title>
    <desc>Created with sketchtool.</desc>
    <defs></defs>
    <g id="Symbols" stroke="none" stroke-width="1" fill="none" fill-rule="evenodd">
        <g id="search-lang" transform="translate(-52.000000, -10.000000)" fill="#FFFFFF">
            <path d="M63.8864639,21.8893331 C63.7345098,22.036889 63.4907484,22.036889 63.3387943,21.8893331 L60.073061,18.7148662 C59.1680414,19.4257925 58.0450955,19.8119782 56.888464,19.8100623 C54.1548398,19.7660027 51.9706611,17.5506742 52.0002981,14.8521837 C52.0299351,12.1536933 54.2622558,9.98562447 56.9962051,10.0000718 C59.7301545,10.0145191 61.9388299,12.206056 61.9391943,14.904705 C61.9386567,16.1245006 61.4713651,17.2990827 60.6308726,18.1932966 L63.8864639,21.3567515 C63.9590707,21.4268177 64,21.5228145 64,21.6230423 C64,21.7232701 63.9590707,21.8192669 63.8864639,21.8893331 L63.8864639,21.8893331 Z M56.888464,10.7531709 C54.5756854,10.793363 52.7298616,12.669487 52.7568885,14.9525686 C52.7839154,17.2356502 54.6736479,19.0686889 56.9867464,19.0555268 C59.299845,19.0423647 61.1680417,17.1879424 61.1684001,14.904705 C61.1590277,13.7938198 60.7027326,12.7321591 59.8999912,11.9535007 C59.0972498,11.1748423 58.0138887,10.743038 56.888464,10.7531709 L56.888464,10.7531709 Z" id="search"></path>
        </g>
    </g>
</svg>