<svg xmlns="http://www.w3.org/2000/svg" width="232.875" height="57.156" viewBox="0 0 232.875 57.156">
  <defs>
    <style>
      .cls-1 {
        fill: #4b4b4b;
        fill-rule: evenodd;
      }
    </style>
  </defs>
  <path class="cls-1" d="M199,34.3a2.457,2.457,0,0,1,2.114,1.09l0.859-.8a3.545,3.545,0,0,0-3.042-1.454,4.117,4.117,0,0,0-4.141,4.38,4.122,4.122,0,0,0,4.141,4.4,3.544,3.544,0,0,0,3.042-1.454l-0.859-.8A2.5,2.5,0,0,1,199,40.759c-1.77,0-2.87-1.384-2.87-3.236S197.227,34.3,199,34.3Zm4.573,0.19h2.407v7.218h1.288V34.493h2.423V33.35H203.57v1.142ZM214.983,40.2l-2.767-6.854h-1.392L214.3,41.8l-0.549,1.263a1.2,1.2,0,0,1-1.238.883,1.963,1.963,0,0,1-.7-0.138L211.6,44.982a4.118,4.118,0,0,0,.945.121,2.467,2.467,0,0,0,2.44-1.7l4.159-10.057h-1.409Zm13.1-6.854h-5.774l-0.533,4.12c-0.327,2.474-.808,3.028-1.581,3.167v3.2h1.289V41.711h6.272V43.84h1.289V40.568H228.08V33.35Zm-1.289,7.218h-4.932a4.313,4.313,0,0,0,1.2-2.942l0.378-3.133h3.351v6.076Zm6-.831V33.35H231.5v8.361h1.238l4.381-6.509v6.509h1.289V33.35h-1.271Zm8.7-3.825a2.391,2.391,0,0,0,2.131,2.51L241.4,41.711h1.512l2.028-3.237h2.268v3.237H248.5V33.35h-4.382A2.457,2.457,0,0,0,241.489,35.912Zm5.722-1.419v2.839h-2.955a1.323,1.323,0,0,1-1.444-1.419,1.341,1.341,0,0,1,1.444-1.419h2.955Zm10.281,2.978c-0.327,2.474-.808,3.375-1.582,3.375v1.073c1.6,0,2.492-1.177,2.871-4.292l0.378-3.133h3.35v7.218H263.8V33.35h-5.774Zm13.183-4.328a4.168,4.168,0,0,0-4.09,4.38,4.131,4.131,0,0,0,4.227,4.4,4.49,4.49,0,0,0,3.3-1.281l-0.619-.848a3.615,3.615,0,0,1-2.561,1.056,2.934,2.934,0,0,1-2.989-2.891h6.719V37.626C274.662,35.116,273.184,33.142,270.675,33.142ZM267.943,37a2.779,2.779,0,0,1,2.715-2.787A2.7,2.7,0,0,1,273.39,37h-5.447Zm13.217-2.7a2.457,2.457,0,0,1,2.114,1.09l0.859-.8a3.545,3.545,0,0,0-3.042-1.454,4.117,4.117,0,0,0-4.141,4.38,4.121,4.121,0,0,0,4.141,4.4,3.544,3.544,0,0,0,3.042-1.454l-0.859-.8a2.5,2.5,0,0,1-2.114,1.09c-1.77,0-2.87-1.384-2.87-3.236S279.39,34.3,281.16,34.3Zm4.573,0.19h2.406v7.218h1.289V34.493h2.423V33.35h-6.118v1.142Zm14.111,2.337h-4.331V33.35h-1.289v8.361h1.289V37.973h4.331v3.739h1.289V33.35h-1.289v3.48Zm5.845,2.907V33.35H304.4v8.361h1.238L310.02,35.2v6.509h1.288V33.35h-1.271Zm15.795,0.831V33.35H320.2v7.218h-4.33V33.35h-1.289v8.361h6.582V43.84h1.288V40.568h-0.962ZM195.418,55.588V53.517h1.824a1.016,1.016,0,0,1,1.108,1.035,0.989,0.989,0,0,1-1.108,1.035h-1.824m0-2.737V50.916h1.788a0.94,0.94,0,0,1,1.028.972,0.93,0.93,0,0,1-1.028.964h-1.788m1.913-2.6h-2.655v6h2.718a1.559,1.559,0,0,0,1.725-1.621,1.5,1.5,0,0,0-1.162-1.476A1.364,1.364,0,0,0,199,51.78a1.508,1.508,0,0,0-1.672-1.53m8.332,0h-3.647l-0.367,3.015C201.4,55.3,201,55.7,200.282,55.7v0.666c1.063,0,1.778-.405,2.1-3.044l0.295-2.4h2.244v5.339h0.742v-6m2.878,4.006,1.27-3.233,1.26,3.233h-2.53m1.725-4.006h-0.92l-2.4,6H207.8l0.528-1.332h2.967l0.528,1.332h0.849l-2.405-6m4.676,5.338a3.194,3.194,0,0,0,.912-2.269l0.295-2.4h2.243v4.672h-3.45m4.192-5.338h-3.647l-0.366,3.015c-0.25,2.035-.653,2.341-1.368,2.386v1.71H214.5V56.255h4.443v1.107h0.742V55.588h-0.546V50.25m6.91,0h-0.759l-3.433,4.69V50.25H221.11v6h0.715l3.478-4.79v4.79h0.741v-6m4.6-.1a3.107,3.107,0,0,0,0,6.213,2.7,2.7,0,0,0,2.271-1.188l-0.635-.352a1.986,1.986,0,0,1-1.636.874,2.445,2.445,0,0,1,0-4.88,2.009,2.009,0,0,1,1.636.874l0.625-.352a2.66,2.66,0,0,0-2.261-1.188m8.667,0.1h-3.647L235.3,53.265c-0.25,2.035-.652,2.431-1.367,2.431v0.666c1.063,0,1.778-.405,2.1-3.044l0.3-2.4h2.244v5.339h0.742v-6m2.879,4.006,1.269-3.233,1.26,3.233h-2.529m1.725-4.006h-0.921l-2.395,6h0.849l0.527-1.332h2.967l0.528,1.332h0.849l-2.4-6m4.434,5.338V53.517h1.823a1.016,1.016,0,0,1,1.109,1.035,0.989,0.989,0,0,1-1.109,1.035h-1.823m0-2.737V50.916h1.788a0.94,0.94,0,0,1,1.028.972,0.93,0.93,0,0,1-1.028.964h-1.788m1.913-2.6h-2.655v6h2.717a1.56,1.56,0,0,0,1.726-1.621,1.5,1.5,0,0,0-1.162-1.476,1.363,1.363,0,0,0,1.045-1.378,1.508,1.508,0,0,0-1.671-1.53m4.34,4.006,1.27-3.233,1.26,3.233H254.6m1.726-4.006h-0.921l-2.4,6h0.849l0.528-1.332h2.967l0.528,1.332h0.849l-2.4-6m12.218,0h-1.063l-1.86,4.519-1.85-4.519h-1.064v6h0.742V51.311l2.02,4.943h0.3l2.029-4.943v4.943h0.742v-6m6.727,0h-0.849l-1.868,3.718-1.869-3.718h-0.849l2.289,4.384-0.108.207a1.1,1.1,0,0,1-1,.856,1.134,1.134,0,0,1-.813-0.405l-0.313.594a1.518,1.518,0,0,0,1.162.478,1.718,1.718,0,0,0,1.618-1.171l2.6-4.942m3.1-.091a2.817,2.817,0,0,0-2.154.928l0.411,0.468a2.226,2.226,0,0,1,1.689-.729,1.213,1.213,0,0,1,1.431,1.026c0,0.693-.653.991-1.449,0.991h-1.215v0.666H278.3c0.912,0,1.547.315,1.547,1.062a1.247,1.247,0,0,1-1.5,1.125,2.307,2.307,0,0,1-1.788-.8l-0.438.477a2.731,2.731,0,0,0,2.244.991c1.341,0,2.235-.73,2.235-1.729a1.5,1.5,0,0,0-1.377-1.476,1.466,1.466,0,0,0,1.287-1.4c0-1.017-.965-1.6-2.136-1.6m9.481,0.091h-0.742v6h0.742v-6m-4.907,5.338V53.3h1.564a1.144,1.144,0,1,1,0,2.287h-1.564m0-5.338H282.2v6H284.6a1.811,1.811,0,1,0,0-3.62h-1.653V50.25m11.683,0H290.98l-0.367,3.015c-0.25,2.035-.652,2.431-1.367,2.431v0.666c1.063,0,1.779-.405,2.1-3.044l0.3-2.4h2.243v5.339h0.742v-6m4.7-1.351a0.419,0.419,0,1,0,.42.414,0.425,0.425,0,0,0-.42-0.414m-1.841,0a0.419,0.419,0,1,0,.411.414,0.418,0.418,0,0,0-.411-0.414m2.878,1.351h-3.906v6h3.906V55.588H297.2V53.517h3.1V52.851h-3.1V50.916h3.164V50.25m2.333,5.338V53.517h1.823a1.016,1.016,0,0,1,1.109,1.035,0.989,0.989,0,0,1-1.109,1.035H302.7m0-2.737V50.916h1.788a0.94,0.94,0,0,1,1.028.972,0.93,0.93,0,0,1-1.028.964H302.7m1.913-2.6h-2.655v6h2.717a1.56,1.56,0,0,0,1.726-1.621,1.5,1.5,0,0,0-1.162-1.476,1.363,1.363,0,0,0,1.045-1.378,1.508,1.508,0,0,0-1.671-1.53m4.34,4.006,1.27-3.233,1.26,3.233h-2.53m1.726-4.006h-0.921l-2.4,6h0.849l0.528-1.332H311.7l0.528,1.332h0.849l-2.4-6M178.562,47.3c0-12.1-15.409-10.482-21.826-4.827,0,0,5.386-7.308,3.294-10.1-2.922-3.9-9.131-.765-15.191,6.459,0,0,5.79-9.11,5.678-16.134-0.236-14.8-23.695-4.23-60.823,40.093-0.687,1.039,1.8,2.943,2.578,1.731,1.633-8.224,54.584-62,54.833-42.159,0.12,9.482-10.291,23.882-13.579,28.135,0.086,1.3,2.528,1.832,3.213,1.179C138.974,46.744,155.3,26.227,157.521,34c0.636,2.232-5.672,11.572-6.713,11.948-0.043,1.12,1.11,2.3,2.829,1.087,1.5-4.682,22.358-14.293,20.8.346-2.574,24.174-61.59,30.522-62.621,20.365-0.96-9.45,46.3-12,61.652-5.887,1.833,0.577,2.635-2.309,1.6-2.54-18.221-3.232-66.465-3.116-65.892,8.772C109.775,80.449,178.562,71.206,178.562,47.3Z" transform="translate(-89.563 -16.406)"/>
</svg>
