<svg xmlns="http://www.w3.org/2000/svg" width="18" height="10" viewBox="0 0 18 10"><defs><style>.cls-1{fill:#c8b678;fill-rule:evenodd}</style></defs><path class="cls-1" d="M7.4 0c1 0 2.7-.2 3 .5.5 1-.5 3.8.5 4.4 1-.3 2-2.5 2.4-3.3a2.8 2.8 0 0 1 .5-1 9.8 9.8 0 0 1 2.5-.2 5 5 0 0 1 1.4 0 1.4 1.4 0 0 1-.4 1.4l-2 2.5a1.6 1.6 0 0 0-.5 1.3c.3 1 3.3 2.3 3 3.7-.4.5-.8.3-1.6.4-1.6 0-2.8-.2-3.5-1-.5-.4-1-1.3-1.8-1.4-1 .5-.3 2-1.3 2.3a6.6 6.6 0 0 1-3.3-.5C4 8.5 2.7 6.2 1.4 4 1 3.2-.3 1 0 .5a10 10 0 0 1 3.5 0A17.6 17.6 0 0 1 4.8 3C5 3.2 6 5 6.6 4.7c.6-.2.6-3 .2-3.7a1.5 1.5 0 0 0-1-.3H6c.2-.6.8-.5 1.4-.7z"/></svg>