<svg xmlns="http://www.w3.org/2000/svg" width="16" height="16" viewBox="0 0 16 16"><defs><style>.cls-1{fill:#c8b678;fill-rule:evenodd}</style></defs><path class="cls-1" d="M11.3 16H4.7A4.7 4.7 0 0 1 0 11.3V4.7A4.7 4.7 0 0 1 4.7 0h6.6A4.7 4.7 0 0 1 16 4.7v6.6a4.7 4.7 0 0 1-4.7 4.7zm3.2-11.3c0-1.8-3.3-3.2-3.3-3.2H4.7a3.2 3.2 0 0 0-3.3 3.2v6.6a3.2 3.2 0 0 0 3.3 3.2h6.5a3.2 3.2 0 0 0 3.3-3.2V4.7zm-2.2 0a1 1 0 1 1 1-1 1 1 0 0 1-1 1zM8 12.2a4 4 0 1 1 4.2-4A4 4 0 0 1 8 12zm0-6.6A2.7 2.7 0 1 0 10.7 8 2.6 2.6 0 0 0 8 5.4z"/></svg>