<svg xmlns="http://www.w3.org/2000/svg" width="879.031" height="291.969" viewBox="0 0 879.031 291.969">
  <defs>
    <style>
      .cls-1 {
        fill: #4b4b4b;
        fill-rule: evenodd;
        opacity: 0.15;
      }
    </style>
  </defs>
  <path id="Shape_1_copy" data-name="Shape 1 copy" class="cls-1" d="M1289,29.493c0-120.88-153.77-104.735-217.81-48.227,0,0,53.75-73.017,32.88-100.87-29.16-38.921-91.13-7.643-151.595,64.534,0,0,57.775-91.018,56.665-161.191-2.36-147.849-236.462-42.266-606.976,400.574-6.861,10.379,18.011,29.408,25.73,17.3,16.3-82.167,544.707-619.429,547.2-421.216,1.189,94.735-102.7,238.615-135.512,281.1,0.857,12.974,25.23,18.3,32.065,11.78,22.3-49.3,185.258-254.287,207.388-176.613,6.35,22.3-56.61,115.622-66.99,119.372-0.44,11.19,11.08,22.973,28.23,10.864,14.91-46.785,223.11-142.8,207.56,3.46C1222.14,271.88,633.209,335.307,622.917,233.824c-9.575-94.417,462-119.937,615.233-58.815,18.3,5.766,26.31-23.065,16.01-25.371C1072.34,117.347,590.9,118.5,596.615,237.283,602.557,360.728,1289,268.382,1289,29.493Z" transform="translate(-400.969)"/>
</svg>
