<svg xmlns="http://www.w3.org/2000/svg" width="5" height="9" viewBox="0 0 5 9">
  <metadata><?xpacket begin="﻿" id="W5M0MpCehiHzreSzNTczkc9d"?>
<x:xmpmeta xmlns:x="adobe:ns:meta/" x:xmptk="Adobe XMP Core 5.6-c138 79.159824, 2016/09/14-01:09:01        ">
   <rdf:RDF xmlns:rdf="http://www.w3.org/1999/02/22-rdf-syntax-ns#">
      <rdf:Description rdf:about=""/>
   </rdf:RDF>
</x:xmpmeta>
                                                                                                    
                                                                                                    
                                                                                                    
                                                                                                    
                                                                                                    
                                                                                                    
                                                                                                    
                                                                                                    
                                                                                                    
                                                                                                    
                                                                                                    
                                                                                                    
                                                                                                    
                                                                                                    
                                                                                                    
                                                                                                    
                                                                                                    
                                                                                                    
                                                                                                    
                                                                                                    
                           
<?xpacket end="w"?></metadata>
<defs>
    <style>
      .cls-1 {
        fill: #282828;
        fill-rule: evenodd;
      }
    </style>
  </defs>
  <path id="arrow_right" data-name="arrow right" class="cls-1" d="M331.37,300h0.1a1.95,1.95,0,0,1,.686.565c1.109,1.089,2.181,2.173,3.331,3.258a1.822,1.822,0,0,1,.508.579,0.6,0.6,0,0,1-.288.566c-1.178,1.166-2.388,2.318-3.592,3.5a2.231,2.231,0,0,1-.576.512,0.412,0.412,0,0,1-.535-0.364v-0.04c0.021-.03.017-0.109,0.041-0.162a2.707,2.707,0,0,1,.48-0.5c0.846-.831,1.678-1.635,2.5-2.437,0.338-.332.677-0.651,0.974-1-1.093-1.131-2.385-2.3-3.524-3.448a1.55,1.55,0,0,1-.452-0.552A0.4,0.4,0,0,1,331.37,300Z" transform="translate(-331 -300)"/>
</svg>
