<svg xmlns="http://www.w3.org/2000/svg" width="31" height="7" viewBox="0 0 31 7">
  <defs>
    <style>
      .cls-1 {
        fill: #0063d1;
        fill-rule: evenodd;
      }
    </style>
  </defs>
  <path id="arrow" class="cls-1" d="M600.3,466h0.077a1.546,1.546,0,0,1,.548.439c0.887,0.847,1.746,1.691,2.666,2.535a1.429,1.429,0,0,1,.406.45,0.466,0.466,0,0,1-.231.44c-0.942.907-1.91,1.8-2.874,2.723a1.756,1.756,0,0,1-.46.4A0.329,0.329,0,0,1,600,472.7v-0.031c0.016-.024.014-0.085,0.033-0.126a2.086,2.086,0,0,1,.384-0.387c0.676-.646,1.343-1.272,2-1.9,0.27-.259.541-0.506,0.779-0.775-0.875-.879-1.908-1.788-2.819-2.681a1.22,1.22,0,0,1-.362-0.43A0.313,0.313,0,0,1,600.3,466Zm3.7,3v1H573v-1h31Z" transform="translate(-573 -466)"/>
</svg>
