<svg xmlns="http://www.w3.org/2000/svg" width="6.97" height="3.969" viewBox="0 0 6.97 3.969">
  <defs>
    <style>
      .cls-1 {
        fill: #444;
        fill-rule: evenodd;
      }
    </style>
  </defs>
  <path id="arrow_down" data-name="arrow down" class="cls-1" d="M1280.07,115.08l-2.96,2.817a0.315,0.315,0,0,0-.02.433l0.41,0.449a0.293,0.293,0,0,0,.42.014l2.97-2.818a0.315,0.315,0,0,0,.01-0.433l-0.41-.447A0.29,0.29,0,0,0,1280.07,115.08Zm-2.5,3.067h-0.27a0.267,0.267,0,0,0-.26.27v0.269a0.268,0.268,0,0,0,.26.271h0.27a0.268,0.268,0,0,0,.26-0.271v-0.269A0.267,0.267,0,0,0,1277.57,118.147Zm0.53-1.215a1.109,1.109,0,0,1-.66.405,1.146,1.146,0,0,1-.67-0.405l0.14,0.81h1.05l0.27-.539Zm-3.19-1.805,2.96,2.842a0.309,0.309,0,0,1,.01.436l-0.41.453a0.291,0.291,0,0,1-.42.015l-2.95-2.843a0.32,0.32,0,0,1-.02-0.437l0.41-.451A0.289,0.289,0,0,1,1274.91,115.127Z" transform="translate(-1274 -115)"/>
</svg>
