<svg xmlns="http://www.w3.org/2000/svg" width="5" height="9" viewBox="0 0 5 9">
  <defs>
    <style>
      .cls-1 {
        fill: #282828;
        fill-rule: evenodd;
      }
    </style>
  </defs>
  <path id="arrow_right" data-name="arrow right" class="cls-1" d="M331.37,322h0.1a1.953,1.953,0,0,1,.686.566c1.109,1.088,2.181,2.173,3.331,3.258a1.811,1.811,0,0,1,.508.579,0.6,0.6,0,0,1-.288.565c-1.178,1.167-2.388,2.319-3.592,3.5a2.207,2.207,0,0,1-.576.511,0.412,0.412,0,0,1-.535-0.363v-0.04c0.021-.031.017-0.11,0.041-0.163a2.739,2.739,0,0,1,.48-0.5c0.846-.83,1.678-1.635,2.5-2.436,0.338-.332.677-0.651,0.974-1-1.093-1.13-2.385-2.3-3.524-3.447a1.559,1.559,0,0,1-.452-0.552A0.4,0.4,0,0,1,331.37,322Z" transform="translate(-331 -322)"/>
</svg>
