<svg xmlns="http://www.w3.org/2000/svg" width="379" height="10" viewBox="0 0 379 10">
  <metadata><?xpacket begin="﻿" id="W5M0MpCehiHzreSzNTczkc9d"?>
<x:xmpmeta xmlns:x="adobe:ns:meta/" x:xmptk="Adobe XMP Core 5.6-c138 79.159824, 2016/09/14-01:09:01        ">
   <rdf:RDF xmlns:rdf="http://www.w3.org/1999/02/22-rdf-syntax-ns#">
      <rdf:Description rdf:about=""/>
   </rdf:RDF>
</x:xmpmeta>
                                                                                                    
                                                                                                    
                                                                                                    
                                                                                                    
                                                                                                    
                                                                                                    
                                                                                                    
                                                                                                    
                                                                                                    
                                                                                                    
                                                                                                    
                                                                                                    
                                                                                                    
                                                                                                    
                                                                                                    
                                                                                                    
                                                                                                    
                                                                                                    
                                                                                                    
                                                                                                    
                           
<?xpacket end="w"?></metadata>
<defs>
    <style>
      .cls-1 {
        fill: #767676;
        fill-rule: evenodd;
      }
    </style>
  </defs>
  <path id="arrows_dividers" data-name="arrows dividers" class="cls-1" d="M370.05,218.405l2.261-4.6a0.349,0.349,0,0,1,.5-0.167,0.427,0.427,0,0,1,.151.547l-2.262,4.6a0.348,0.348,0,0,1-.494.167A0.426,0.426,0,0,1,370.05,218.405Zm-0.007-8.811,2.265,4.6a0.35,0.35,0,0,0,.5.167,0.427,0.427,0,0,0,.151-0.548l-2.266-4.6a0.349,0.349,0,0,0-.5-0.167A0.426,0.426,0,0,0,370.043,209.594ZM162.05,218.405l2.261-4.6a0.349,0.349,0,0,1,.5-0.167,0.427,0.427,0,0,1,.151.547l-2.262,4.6a0.348,0.348,0,0,1-.494.167A0.426,0.426,0,0,1,162.05,218.405Zm-0.007-8.811,2.265,4.6a0.35,0.35,0,0,0,.5.167,0.427,0.427,0,0,0,.151-0.548l-2.265-4.6a0.35,0.35,0,0,0-.5-0.167A0.426,0.426,0,0,0,162.043,209.594Zm376.007,8.811,2.261-4.6a0.349,0.349,0,0,1,.5-0.167,0.427,0.427,0,0,1,.151.547l-2.262,4.6a0.348,0.348,0,0,1-.494.167A0.426,0.426,0,0,1,538.05,218.405Zm-0.008-8.811,2.266,4.6a0.35,0.35,0,0,0,.5.167,0.427,0.427,0,0,0,.151-0.548l-2.266-4.6a0.349,0.349,0,0,0-.5-0.167A0.427,0.427,0,0,0,538.042,209.594Z" transform="translate(-162 -209)"/>
</svg>
