<svg xmlns="http://www.w3.org/2000/svg" width="24" height="21" viewBox="0 0 24 21">
  <metadata><?xpacket begin="﻿" id="W5M0MpCehiHzreSzNTczkc9d"?>
<x:xmpmeta xmlns:x="adobe:ns:meta/" x:xmptk="Adobe XMP Core 5.6-c138 79.159824, 2016/09/14-01:09:01        ">
   <rdf:RDF xmlns:rdf="http://www.w3.org/1999/02/22-rdf-syntax-ns#">
      <rdf:Description rdf:about=""/>
   </rdf:RDF>
</x:xmpmeta>
                                                                                                    
                                                                                                    
                                                                                                    
                                                                                                    
                                                                                                    
                                                                                                    
                                                                                                    
                                                                                                    
                                                                                                    
                                                                                                    
                                                                                                    
                                                                                                    
                                                                                                    
                                                                                                    
                                                                                                    
                                                                                                    
                                                                                                    
                                                                                                    
                                                                                                    
                                                                                                    
                           
<?xpacket end="w"?></metadata>
<defs>
    <style>
      .cls-1 {
        fill: #444;
        fill-rule: evenodd;
      }
    </style>
  </defs>
  <path id="compare_icon" data-name="compare icon" class="cls-1" d="M1532.79,147.156l-3.05,2.982a0.73,0.73,0,0,1-1.01,0h0a0.681,0.681,0,0,1,0-.984l1.88-1.851h-16.33a3.887,3.887,0,0,0-3.92,3.843v0.166a0.661,0.661,0,0,1-1.32,0v-0.166a5.2,5.2,0,0,1,5.24-5.141h16.33l-1.88-1.846a0.68,0.68,0,0,1,0-.983h0a0.73,0.73,0,0,1,1.01,0l3.05,2.982A0.7,0.7,0,0,1,1532.79,147.156Zm-20.57,9.694a0.742,0.742,0,0,1,1.02,0h0a0.681,0.681,0,0,1,0,.984l-1.89,1.851h16.34a3.887,3.887,0,0,0,3.92-3.843V155.67a0.661,0.661,0,0,1,1.32,0v0.167a5.2,5.2,0,0,1-5.24,5.141h-16.33l1.88,1.845a0.681,0.681,0,0,1,0,.984h0a0.742,0.742,0,0,1-1.02,0l-3.04-2.982a0.7,0.7,0,0,1,0-.988Z" transform="translate(-1509 -143)"/>
</svg>
