<svg xmlns="http://www.w3.org/2000/svg" width="44" height="32.969" viewBox="0 0 44 32.969">
  <defs>
    <style>
      .cls-1 {
        fill: #0063d1;
        fill-rule: evenodd;
      }
    </style>
  </defs>
  <path id="delivery_icon" data-name="delivery icon" class="cls-1" d="M444.164,642.034h22.46a10.385,10.385,0,0,1,3.032.14c2.024,0.809,1.156,3.9,1.447,6.265,2.876,0.3,7.3-.785,9.645.282,1.661,0.757,2.778,2.759,4,4.434,1.186,1.632,2.862,3.322,3.169,5.491a45.693,45.693,0,0,1,0,5.068,26.362,26.362,0,0,1-.069,4.927c-0.33,1.374-1.539,1.865-3.376,1.831a5.4,5.4,0,0,1-5.305,4.5c-2.568-.094-4.273-2.081-4.891-4.5-4.456-.118-9.392-0.118-13.848,0a6.321,6.321,0,0,1-2.618,3.871,5.117,5.117,0,0,1-7.51-3.871c-2.545-.226-5.293.49-6.063-1.549-0.424-1.122-.138-2.877-0.138-4.364,0-1.537-.056-3,0.069-4.364h0.9c0.362,2.469-.041,5.756.206,8.376,0.663,1.248,3.275.5,4.961,0.7a5.363,5.363,0,0,1,5.718-4.5c2.322,0.243,3.882,2.094,4.41,4.435,2.986,0.117,6.453.117,9.439,0,0.25-6.255.137-13.281,0.137-19.991,0-1.674.487-5.493-.689-5.984a11.262,11.262,0,0,0-3.1-.07H444.1v-0.915C444.089,642.145,444.084,642.046,444.164,642.034Zm26.87,8.447c0.046,6.218-.092,12.623.069,18.724a28.268,28.268,0,0,0,3.169.07c0.363-.64.349-1.207,0.62-1.759a5.13,5.13,0,0,1,5.167-2.746c2.383,0.273,3.832,2.324,4.409,4.5,2.9,0.564,2.343-2.03,2.343-4.716,0-1.5.054-2.981-.069-4.012a24.752,24.752,0,0,0-4.409-.141c-1.541,0-3.325.3-4.548-.071-3.06-.931-0.966-7.4-1.791-10.769C474.328,649.577,471.452,648.959,471.034,650.481Zm12.883,3.308c-1.03-1.417-2.339-3.758-4-4.223a5.747,5.747,0,0,0-2.549.07,24.959,24.959,0,0,0-.138,4.5c0,1.708-.321,3.506.138,4.435,0.437,0.882,1.586.7,2.825,0.7a53.346,53.346,0,0,0,6.476-.14C486.628,657.141,485.2,655.555,483.917,653.789ZM455.6,673.851a3.972,3.972,0,1,0-.9-7.884C450.02,666.69,450.574,674.181,455.6,673.851Zm19.842-3.943a3.927,3.927,0,1,0,7.854,0A3.928,3.928,0,1,0,475.443,669.908Zm-31.279-24.284h15.3v1.126H444.1v-0.915C444.089,645.735,444.084,645.635,444.164,645.624Zm0,3.66h12.608v1.126H444.1A3.512,3.512,0,0,1,444.164,649.284Zm0,3.66h9.921v1.127H444.1A3.518,3.518,0,0,1,444.164,652.944Zm7.234,3.59v1.127h-7.3a3.52,3.52,0,0,1,.069-1.127H451.4Z" transform="translate(-444 -642.031)"/>
</svg>
