<svg xmlns="http://www.w3.org/2000/svg" width="39" height="39" viewBox="0 0 39 39">
  <defs>
    <style>
      .cls-1 {
        fill: #0063d1;
        fill-rule: evenodd;
      }
    </style>
  </defs>
  <path id="feedback_icon" data-name="feedback icon" class="cls-1" d="M750.478,638.039a20.085,20.085,0,0,1,14.714,4.863,15.756,15.756,0,0,1,5.746,13.708,16.122,16.122,0,0,1-7.387,12.186,20.261,20.261,0,0,1-13.425,3.574,10.975,10.975,0,0,0-2.111-.293,5.073,5.073,0,0,0-1.641,1.113,24.814,24.814,0,0,1-5.394,2.695A16.266,16.266,0,0,1,734,676.939c-0.855-.089-1.892-0.208-1.994-0.7-0.156-.766,1.291-1.461,1.818-1.875a10.243,10.243,0,0,0,3.341-3.984,6.372,6.372,0,0,0,.763-2.87,6.782,6.782,0,0,0-1.525-1.816,16.358,16.358,0,0,1-3.576-6.386,16.726,16.726,0,0,1,1.114-11.131,18.347,18.347,0,0,1,10.846-9.08A22.415,22.415,0,0,1,750.478,638.039Zm-4.1,33.686a4.54,4.54,0,0,1,1.348-.938,10.384,10.384,0,0,1,1.993.294,19.451,19.451,0,0,0,12.839-3.106,15.088,15.088,0,0,0,7.153-11.306,14.738,14.738,0,0,0-5.335-12.889,19.074,19.074,0,0,0-13.894-4.569c-7.468.4-13.033,4.528-15.536,9.783a14.9,14.9,0,0,0-.762,10.487,14.064,14.064,0,0,0,3.517,5.859,5.736,5.736,0,0,1,1.466,1.7c0.3,1.441-.5,3.1-1,4.1a9.971,9.971,0,0,1-2.99,3.632c-0.26.2-.765,0.394-0.645,0.762A18.592,18.592,0,0,0,746.374,671.725Z" transform="translate(-732 -638)"/>
</svg>
