<svg xmlns="http://www.w3.org/2000/svg" width="41" height="41" viewBox="0 0 41 41">
  <defs>
    <style>
      .cls-1 {
        fill: #444;
        fill-rule: evenodd;
      }
    </style>
  </defs>
  <path id="headset_icon" data-name="headset icon" class="cls-1" d="M126.008,2782.66h-1.515c-1.661-6.25-5.93-10.58-12.925-11.1a14.035,14.035,0,0,0-15.065,11.1H94.988c1.588-7.44,7.519-13.24,16.847-12.62C119.482,2770.56,124.6,2775.8,126.008,2782.66Zm-30.485,1.61c1.62-.12,3.123-0.04,3.744,1.25,0.368,0.77.178,2.89,0.178,4.03v8.23c0,2.56.3,4.48-1.337,5.19a7.117,7.117,0,0,1-4.189,0,5.743,5.743,0,0,1-3.744-3.94,158.854,158.854,0,0,1,0-10.64C90.745,2785.86,92.9,2784.46,95.523,2784.27Zm-0.535,1.52c-3.669.49-3.387,3.74-3.387,8.14a25.168,25.168,0,0,0,.089,4.74c0.649,2.69,3.24,3.41,6.061,2.69a131.763,131.763,0,0,0,0-15.3A5.217,5.217,0,0,0,94.988,2785.79Zm29.683,17.36c-0.43,3.77-3.233,5.16-7.844,4.74-0.908,3.64-7.515,4.34-9.181.72a3.87,3.87,0,0,1-.09-2.78c1.281-3.5,8.356-3.54,9.182.54,1.6-.04,3.272.17,4.546-0.45,0.713-.34,2-1.65,1.782-2.68-0.123-.58-1.2-0.92-1.426-1.61a17.4,17.4,0,0,1-.089-3.94v-8.05c0-3.29-.3-5.04,2.407-5.46,3.307-.52,6.54,1.55,6.952,4.65a40.953,40.953,0,0,1,0,4.92,40.683,40.683,0,0,1,0,4.83C130.5,2801.58,127.992,2803.26,124.671,2803.15Zm2.5-1.88c2.282-1.05,2.228-3.49,2.228-7.25a42.6,42.6,0,0,0,0-4.83c-0.356-2.59-3.039-4.01-5.972-3.22-0.573.25-.357,2.66-0.357,3.67,0,4.01-.14,8.47.179,11.72A5.508,5.508,0,0,0,127.167,2801.27Zm-18.273,5.9c0.08,3.07,6.258,3.14,6.328,0,0.043-1.91-1.95-2.68-3.922-2.32C109.817,2805.12,108.862,2805.96,108.894,2807.17Z" transform="translate(-90 -2770)"/>
</svg>
