<svg xmlns="http://www.w3.org/2000/svg" width="14.031" height="16" viewBox="0 0 14.031 16">
  <defs>
    <style>
      .cls-1 {
        fill: #1673ff;
        fill-rule: evenodd;
      }
    </style>
  </defs>
  <path id="Location" class="cls-1" d="M159.008,2917.02a6.978,6.978,0,0,0-7.008,6.95c0,5.52,5.025,8.3,6.516,8.95a1.127,1.127,0,0,0,.4.08c0.03,0,.059-0.01.088-0.01s0.058,0.01.087,0.01a1.132,1.132,0,0,0,.405-0.08c1.491-.65,6.516-3.43,6.516-8.95A6.978,6.978,0,0,0,159.008,2917.02Zm0.088,13.88c-0.027-.02-0.06-0.03-0.088-0.05-0.029.02-.062,0.03-0.089,0.05-1.284-.65-4.917-2.84-4.917-6.93a5.006,5.006,0,0,1,10.012,0C164.014,2928.06,160.38,2930.25,159.1,2930.9Zm-0.088-8.89a2,2,0,1,0,2,2,2,2,0,0,0-2-2h0Z" transform="translate(-152 -2917)"/>
</svg>
