<svg xmlns="http://www.w3.org/2000/svg" width="64" height="11" viewBox="0 0 64 11">
  <defs>
    <style>
      .cls-1 {
        fill: #333e48;
        fill-rule: evenodd;
      }
    </style>
  </defs>
  <path id="MARKET" class="cls-1" d="M183,32h0.322l4.663,4.813v1.375l-4.02-4.148V43H183V32Zm9.938,0h-0.322l-4.663,4.813v1.375l4.02-4.148V43h0.965V32Zm1.353,11,9.359-11h0.386V43h-1V34.093L195.417,43h-1.126Zm3.056-3.125h4.438v0.813h-4.438V39.873Zm9.461-7.812h5.046c2.344,0.28,3.973,1.715,4.116,4a4.264,4.264,0,0,1-3.377,4.342c0.882,0.84,2.8,2.594,2.8,2.594h-1.254s-0.487-.392-0.708-0.594c-0.56-.513-0.824-0.767-1.35-1.25-0.252-.232-0.676-0.656-0.676-0.656s0-.457,0-0.719a3.556,3.556,0,0,0,3.538-2.874,3.357,3.357,0,0,0-3.216-4c-0.652,0-3.923,0-3.923,0V43h-0.994V32.061Zm10.842-.016h0.965v5.724l5.981-5.442h1.319l-7.3,6.719v3.937H217.65V32.045Zm2.894,6.562,0.708-.656,5.467,5.032h-1.383Zm7.851-6.547h0.964V43H228.4V32.061Zm0.9,10.125h6.69V43H229.3V42.186Zm1.351-5.375h3.505v0.844h-3.505V36.811Zm-1.383-4.75h6.625v0.812h-6.625V32.061Zm7.928,0h3.473V32.9h-3.473V32.061Zm4.438,0H247V32.9h-5.371V32.061Zm0,0.781h1V43h-1V32.842Z" transform="translate(-183 -32)"/>
</svg>
