<svg xmlns="http://www.w3.org/2000/svg" width="40" height="40" viewBox="0 0 40 40">
  <defs>
    <style>
      .cls-1 {
        fill: #1f1f1f;
        fill-rule: evenodd;
      }
    </style>
  </defs>
  <path id="newsletter_icon" data-name="newsletter icon" class="cls-1" d="M129.961,2527.11a6.291,6.291,0,0,1-.437,2.62c-2.833,11.6-5.838,23.24-8.724,34.86a7.634,7.634,0,0,1-.727,2.37,0.892,0.892,0,0,1-.97-0.44c-3.03-2.91-5.755-5.8-9.016-8.76-0.36-.33-1.017-1.3-1.405-1.31a3.043,3.043,0,0,0-1.067.97c-1.608,1.79-3.109,3.47-4.7,5.33-0.442.51-1.443,2.02-2.036,1.84-0.608-.19-0.229-2-0.146-2.76,0.339-3.13.662-5.93,0.776-8.96a3.983,3.983,0,0,0-1.454-.53c-2.914-.97-5.689-1.92-8.725-2.91a2.149,2.149,0,0,1-1.309-.63c-0.135-.5.419-0.74,0.921-1.01,11.9-6.46,23.832-12.98,35.772-19.32,0.812-.43,1.685-0.87,2.424-1.36A0.806,0.806,0,0,1,129.961,2527.11Zm-11.876,36.94c0.338,0.32.958,1.24,1.357,1.07a1.693,1.693,0,0,0,.388-1.02c2.8-11.16,5.514-21.9,8.289-33.06,0.074-.3.851-2.42,0-2.18a12.124,12.124,0,0,0-2.278,1.21c-6.735,3.59-13.4,7.33-20.165,10.94-4.191,2.24-8.18,4.38-12.36,6.68-0.185.1-1,.42-0.969,0.77a1.386,1.386,0,0,0,1.018.59c2.6,0.86,4.945,1.6,7.416,2.42a4.567,4.567,0,0,0,1.309.33,4.925,4.925,0,0,0,1.308-1.01c6.2-5,12.2-9.86,18.371-14.86a3.149,3.149,0,0,1,1.454-.93c0.958,0.15-.074,1.42-0.339,1.8-2.057,2.89-4.33,5.95-6.3,8.66-2.472,3.4-4.832,6.5-7.174,9.98C112.242,2558.42,115.085,2561.2,118.085,2564.05Zm0.436-24.06a15.8,15.8,0,0,0-2.035,1.55c-3.927,3.21-8,6.45-11.876,9.64a9.611,9.611,0,0,0-1.939,1.64,5.617,5.617,0,0,0-.048,1.02c-0.2,2.01-.4,3.95-0.63,6.1-0.091.83-.285,1.79,0.1,1.89s0.882-.73,1.26-1.17c1.165-1.34,2.367-2.6,3.441-3.82,1.492-1.69,2.915-3.65,4.217-5.47,2.374-3.32,4.811-6.57,7.126-9.83a3.293,3.293,0,0,0,.824-1.55A0.383,0.383,0,0,0,118.521,2539.99Z" transform="translate(-90 -2527)"/>
</svg>
