<svg xmlns="http://www.w3.org/2000/svg" width="40" height="40" viewBox="0 0 40 40">
  <defs>
    <style>
      .cls-1 {
        fill: #0063d1;
        fill-rule: evenodd;
      }
    </style>
  </defs>
  <path id="payment_icon" data-name="payment icon" class="cls-1" d="M1331.12,638.219c1.53-.445,4.81-0.08,6.66-0.08h13.08c1.6,0,5.4-.352,6.02.479,0.48,0.657.24,2.844,0.24,4.4V652.3c0,1.249.26,3.687-.33,4.32-0.76.825-4.65,0.4-6.41,0.4h-17.1c-1.24,0-2.48.057-2.88-.48-0.48-.624-0.25-3.126-0.25-4.482V642.7C1330.15,640.887,1329.74,638.62,1331.12,638.219Zm3.53,1.04a15.541,15.541,0,0,0-3.05,0c-0.55.148-.32,1.347-0.32,2.32,0,4.9-.07,9.776.08,14.244,8,0.133,16.55.133,24.55,0,0.14-5.308.14-11.176,0-16.485C1349.32,639.194,1341.44,639.259,1334.65,639.259Zm5.21,2.16a36.876,36.876,0,0,1,4.82-.08c1.1,0,3.35-.19,4.01.64a1.932,1.932,0,0,1-.48,2.721c-0.83.459-3.02,0.24-4.57,0.24-2.64,0-6.01.508-5.38-2.32A1.67,1.67,0,0,1,1339.86,641.419Zm3.86,2.4c1.03,0,4.02.415,4.17-.56,0.17-1.178-2.16-.8-3.69-0.8-1.72,0-3.12-.126-4.18,0a0.734,0.734,0,0,0-.64.96C1340.19,644.077,1342.04,643.82,1343.72,643.82Zm8.9,18.245c1.48-.7,4.38-0.979,4.5,1.12,2.08-1.143,5.4-.626,4.81,2.161-0.41,1.93-3.11,3.235-4.73,4.32-2.57,1.713-5.63,3.729-8.43,5.521a22.762,22.762,0,0,1-4.41,2.562c-2.96.92-5.57-.922-7.95-2.161-0.81-.425-1.76-0.9-2.8-1.441s-2.04-1.276-2.97-1.2a6.031,6.031,0,0,0-2.25,1.121c-0.62.416-1.43,1.348-2.09,0.56,0.11-1.04,1.18-1.267,1.93-1.76a4.716,4.716,0,0,1,2.49-1.121c1.78-.049,4.26,1.775,5.69,2.48,1.8,0.884,3.49,2.161,5.54,2.562a3.7,3.7,0,0,0,1.77-.081,20.068,20.068,0,0,0,4.65-2.64c3.54-2.3,7.3-4.71,10.91-7.282,0.67-.475,1.64-1.282,1.61-2-0.07-1.507-2.39-.948-3.37-0.481-2.26,1.072-4.79,3.175-6.98,4.642-0.38.253-.83,0.447-1.21,0.719a3.841,3.841,0,0,1-2.16,1.04,36.9,36.9,0,0,1-9.39-.4c-0.71-.142-2.03-0.282-2.01-0.961,0.03-.822,1.31-0.442,2.25-0.24a32.982,32.982,0,0,0,8.66.48c0.85-.083,1.87-0.421,2.01-1.12,0.4-2.067-2.76-1.654-4.49-1.92a18.7,18.7,0,0,1-4.98-1.361c-1.14-.62-1.67-1.895-2.81-2.56-3.45-2.026-7.67.059-10.19,1.2-0.69.315-1.4,0.645-2.08,0.961-0.64.294-1.34,0.927-2.09,0.56-0.31-1.089.9-1.228,1.53-1.521,2.8-1.312,5.76-3.4,9.86-3.121a7.3,7.3,0,0,1,5.14,2.241,6.279,6.279,0,0,0,1.2,1.2,6.476,6.476,0,0,0,2.33.72c0.73-.062,2.27-1.387,3.13-1.92,1.42-.877,2.68-1.953,4.33-2.16C1351.02,660.6,1352.21,660.907,1352.62,662.065Zm-3.21,2.08c0.48-.315,1.96-1,2.01-1.52,0.06-.612-0.54-0.768-1.29-0.72a7.69,7.69,0,0,0-3.2,1.36,11.442,11.442,0,0,0-2.65,1.92c0.67,0.476,1.96.336,3.05,0.4C1348.04,665.159,1348.59,664.692,1349.41,664.145Zm2.17-.079a17.71,17.71,0,0,0-2.73,2.079,3.725,3.725,0,0,1,1.04,1.6,49.454,49.454,0,0,0,6.1-4,2.813,2.813,0,0,0-.08-0.8C1354.42,662.186,1352.83,663.206,1351.58,664.066Z" transform="translate(-1322 -637.969)"/>
</svg>
