<svg xmlns="http://www.w3.org/2000/svg" width="37" height="40" viewBox="0 0 37 40">
  <defs>
    <style>
      .cls-1 {
        fill: #0063d1;
        fill-rule: evenodd;
      }
    </style>
  </defs>
  <path id="return_icon" data-name="return icon" class="cls-1" d="M1065.97,648.718h-8.43c-0.98,0-2.19.15-2.33-.466-0.31-1.3,2.48-.854,3.5-0.854a19.865,19.865,0,0,0,4.21-.156c-0.17-.989-1.23-1.935-2.02-2.641a17.126,17.126,0,0,0-12.63-4.194,16.526,16.526,0,0,0-12.24,6.524c-2.34,2.987-3.82,7.024-3.59,12.661,0.03,0.734.22,1.657-.39,1.786-1.31.276-1.03-3.561-1.01-4.5a18.32,18.32,0,0,1,10.99-16.233c7.68-3.488,16.08-.6,20.5,3.651,0.6,0.572.8,1.326,1.8,1.631,0.51-.348.31-1.142,0.31-1.786a41.791,41.791,0,0,1,.16-5.981,1.227,1.227,0,0,1,.39-0.156c1.27-.029.78,3.35,0.78,4.971v5.748ZM1034.7,670c-0.54.842-.31,2.624-0.31,4.194,0,1,.41,3.807-0.63,3.807-0.81,0-.62-1.235-0.62-2.253v-8.466h8.5c1.02,0,2.16-.16,2.18.621,0.03,1.1-2.59.7-3.66,0.7h-2.19c-0.68,0-1.47-.173-1.87.233a2.274,2.274,0,0,0,.94,1.477,16.9,16.9,0,0,0,12.4,5.359,17.983,17.983,0,0,0,12.31-5.127,17.665,17.665,0,0,0,4.92-12.5c0-.828-0.55-3.484.46-3.417,1.16,0.075.85,4.047,0.78,5.2a18.2,18.2,0,0,1-4.05,10.252,17.735,17.735,0,0,1-8.42,5.9,18.887,18.887,0,0,1-18.95-4.272C1035.93,671.16,1035.58,670.3,1034.7,670Z" transform="translate(-1031 -638)"/>
</svg>
