<svg xmlns="http://www.w3.org/2000/svg" width="26" height="28.031" viewBox="0 0 26 28.031">
  <defs>
    <style>
      .cls-1 {
        fill: #444;
        fill-rule: evenodd;
      }
    </style>
  </defs>
  <path id="shopping_cart_icon" data-name="shopping cart icon" class="cls-1" d="M1719,128h-26c0.85-7.028,1.61-14.14,2.52-21.1h4.58c-0.26-3.728,1.75-6.118,4.53-6.736,4.19-.938,7.73,2.3,7.27,6.736h4.64C1717.33,113.958,1718.19,120.953,1719,128Zm-13.23-26.78c-2.76.114-4.75,2.394-4.41,5.678h9.28C1710.93,103.407,1708.89,101.089,1705.77,101.218Zm-9.22,7.015c-0.7,6.218-1.45,12.4-2.18,18.6h23.26c-0.72-6.261-1.51-12.455-2.18-18.763h-3.55v1.169a1.408,1.408,0,0,1,.57,1.225,1.208,1.208,0,0,1-2.4-.167c0.01-.548.45-0.643,0.57-1.114,0.08-.312-0.06-0.594,0-1.113h-9.28c-0.35,1.421.59,1.335,0.57,2.283a1.2,1.2,0,0,1-2.4-.056c0.01-.6.45-0.655,0.57-1.114,0.08-.3-0.05-0.59,0-1.113h-3.49C1696.54,108.075,1696.55,108.154,1696.55,108.233Z" transform="translate(-1693 -99.969)"/>
</svg>
