<svg xmlns="http://www.w3.org/2000/svg" width="40" height="40" viewBox="0 0 40 40">
  <defs>
    <style>
      .cls-1 {
        fill: #0063d1;
        fill-rule: evenodd;
      }
    </style>
  </defs>
  <path id="tag_icon" data-name="tag icon" class="cls-1" d="M1637.66,678h-0.19c-1.48-.25-2.21-1.392-3.2-2.388-4.28-4.275-8.35-8.338-12.64-12.627-0.74-.748-1.66-1.491-1.63-2.639,0.03-1.313,1.39-2.333,2.26-3.2,5.64-5.631,10.92-10.915,16.41-16.4,0.86-.862,1.89-2.158,2.95-2.513a15.532,15.532,0,0,1,4.09-.188h8.3a18.145,18.145,0,0,1,4.02.125c2.2,0.681,1.95,2.965,1.95,5.843v8.356a15.84,15.84,0,0,1-.19,4.02c-0.34,1.015-1.78,2.094-2.64,2.953-5.46,5.452-10.74,10.795-16.22,16.271C1640.05,676.491,1638.88,677.926,1637.66,678Zm1.89-36.249c-5.46,5.458-10.53,10.392-15.9,15.768-0.57.561-2.39,1.978-2.39,2.89,0,0.885,1.25,1.7,1.82,2.262,4.22,4.216,8.05,8.045,12.26,12.25,0.54,0.545,1.52,1.829,2.26,1.822,0.8-.007,2.13-1.69,2.83-2.387,5.41-5.414,10.39-10.388,15.71-15.706,0.88-.873,2.17-1.806,2.45-2.827a19,19,0,0,0,.13-4.021v-8.292c0-1.4.21-3.1-.44-3.769-0.58-.6-2.44-0.441-3.83-0.441h-3.96a68.524,68.524,0,0,0-7.92.063C1641.31,639.529,1640.34,640.958,1639.55,641.75Zm12.19,0.753a3.247,3.247,0,0,1,3.84,2.765,3.317,3.317,0,0,1-5.03,3.2,3.377,3.377,0,0,1-1.51-2.449A3.181,3.181,0,0,1,1651.74,642.5Zm0.63,5.215c2.62-.052,2.48-4.563-0.5-3.958C1649.55,644.23,1650.06,647.763,1652.37,647.718Z" transform="translate(-1620 -638)"/>
</svg>
