<svg xmlns="http://www.w3.org/2000/svg" width="12" height="13" viewBox="0 0 12 13">
  <defs>
    <style>
      .cls-1 {
        fill: #444;
        fill-rule: evenodd;
      }
    </style>
  </defs>
  <path id="User_icon" data-name="User icon" class="cls-1" d="M1471,52.916V53h-1.21a4.675,4.675,0,0,0-1.31-3.27,4.8,4.8,0,0,0-6.6-.3A4.489,4.489,0,0,0,1460.21,53H1459V52.944a5.871,5.871,0,0,1,3.64-5.352,4.234,4.234,0,0,1-1.42-5.244A4.19,4.19,0,0,1,1465.03,40a4.166,4.166,0,0,1,4.08,4.945,4.481,4.481,0,0,1-1.75,2.65A5.858,5.858,0,0,1,1471,52.916Zm-8.96-9.3a2.982,2.982,0,0,0,1.18,2.919,3.13,3.13,0,0,0,3.34.108,2.907,2.907,0,0,0,1.43-2.892,3.127,3.127,0,0,0-.83-1.675A3.032,3.032,0,0,0,1462.04,43.62Z" transform="translate(-1459 -40)"/>
</svg>
