<svg xmlns="http://www.w3.org/2000/svg" width="25.998" height="23.818" viewBox="0 0 60 54.969">
  <metadata><?xpacket begin="﻿" id="W5M0MpCehiHzreSzNTczkc9d"?>
<x:xmpmeta xmlns:x="adobe:ns:meta/" x:xmptk="Adobe XMP Core 5.6-c138 79.159824, 2016/09/14-01:09:01        ">
   <rdf:RDF xmlns:rdf="http://www.w3.org/1999/02/22-rdf-syntax-ns#">
      <rdf:Description rdf:about=""/>
   </rdf:RDF>
</x:xmpmeta>
                                                                                                    
                                                                                                    
                                                                                                    
                                                                                                    
                                                                                                    
                                                                                                    
                                                                                                    
                                                                                                    
                                                                                                    
                                                                                                    
                                                                                                    
                                                                                                    
                                                                                                    
                                                                                                    
                                                                                                    
                                                                                                    
                                                                                                    
                                                                                                    
                                                                                                    
                                                                                                    
                           
<?xpacket end="w"?></metadata>
<defs>
    <style>
      .cls-1 {
        fill: #444;
        fill-rule: evenodd;
      }
    </style>
  </defs>
  <path id="wishlist_icon" data-name="wishlist icon" class="cls-1" d="M1609.19,142.031a16.649,16.649,0,0,0-13.19,6.551,16.649,16.649,0,0,0-13.19-6.551A16.98,16.98,0,0,0,1566,159.183c0,20.626,30,37.818,30,37.818s30-17.192,30-37.818A16.98,16.98,0,0,0,1609.19,142.031ZM1596,193.3a93.285,93.285,0,0,1-12.92-9.836c-6.37-5.842-13.97-14.8-13.97-24.282a13.852,13.852,0,0,1,13.7-13.976,13.532,13.532,0,0,1,10.75,5.341l2.44,3.163,2.44-3.163a13.532,13.532,0,0,1,10.75-5.341,13.852,13.852,0,0,1,13.7,13.976C1622.89,175.179,1601.89,189.575,1596,193.3Z" transform="translate(-1566 -142.031)"/>
</svg>
