<svg xmlns="http://www.w3.org/2000/svg" width="9" height="9" viewBox="0 0 9 9">
  <defs>
    <style>
      .cls-1 {
        fill: #fff;
        fill-rule: evenodd;
      }
    </style>
  </defs>
  <path id="_" data-name="✓" class="cls-1" d="M97.375,1128.01a0.025,0.025,0,0,0,.027-0.02,0.883,0.883,0,0,0,.754-0.41l4.714-7.21a0.873,0.873,0,0,0-.3-1.23,0.97,0.97,0,0,0-1.293.28l-3.987,6.1-1.589-1.98a0.953,0.953,0,0,0-1.32-.18,0.9,0.9,0,0,0-.189,1.26l2.425,3.03A0.986,0.986,0,0,0,97.375,1128.01Z" transform="translate(-94 -1119)"/>
</svg>
