<svg xmlns="http://www.w3.org/2000/svg" width="8" height="14.031" viewBox="0 0 8 14.031">
  <defs>
    <style>
      .cls-1 {
        fill: #fff;
        fill-rule: evenodd;
      }
    </style>
  </defs>
  <path id="arrow_left" data-name="arrow left" class="cls-1" d="M78.837,327.165l-5.7-5.947a0.633,0.633,0,0,0-.876-0.031l-0.9.823a0.59,0.59,0,0,0-.03.851l5.7,5.947a0.633,0.633,0,0,0,.876.03l0.9-.822A0.588,0.588,0,0,0,78.837,327.165Zm-6.2-5.022v-0.531a0.539,0.539,0,0,0-.547-0.53H71.544a0.536,0.536,0,0,0-.544.53v0.531a0.537,0.537,0,0,0,.544.532H72.09A0.54,0.54,0,0,0,72.636,322.143Zm2.454,1.062a2.218,2.218,0,0,1-.817-1.327,2.247,2.247,0,0,1,.817-1.328l-1.636.266v2.124l1.091,0.53Zm3.651-6.394L73,322.746a0.641,0.641,0,0,1-.883.029l-0.914-.819a0.585,0.585,0,0,1-.029-0.849l5.747-5.935a0.639,0.639,0,0,1,.882-0.03l0.912,0.82A0.582,0.582,0,0,1,78.742,316.811Z" transform="translate(-71 -314.969)"/>
</svg>
