<svg xmlns="http://www.w3.org/2000/svg" width="8" height="14" viewBox="0 0 8 14">
  <defs>
    <style>
      .cls-1 {
        fill: #000;
        fill-rule: evenodd;
      }
    </style>
  </defs>
  <path id="arrow_right" data-name="arrow right" class="cls-1" d="M1201.16,327.169l5.7-5.934a0.639,0.639,0,0,1,.88-0.03l0.9,0.82a0.592,0.592,0,0,1,.03.85l-5.7,5.934a0.627,0.627,0,0,1-.87.029l-0.91-.82A0.591,0.591,0,0,1,1201.16,327.169Zm6.2-5.01v-0.53a0.542,0.542,0,0,1,.55-0.529h0.55a0.533,0.533,0,0,1,.54.529v0.53a0.534,0.534,0,0,1-.54.53h-0.55A0.543,0.543,0,0,1,1207.36,322.159Zm-2.45,1.059a2.21,2.21,0,0,0,.82-1.325,2.239,2.239,0,0,0-.82-1.324l1.64,0.265v2.119l-1.1.53Zm-3.65-6.38,5.74,5.922a0.652,0.652,0,0,0,.89.03l0.91-.818a0.581,0.581,0,0,0,.03-0.848l-5.75-5.922a0.64,0.64,0,0,0-.88-0.029l-0.91.818A0.58,0.58,0,0,0,1201.26,316.838Z" transform="translate(-1201 -315)"/>
</svg>
