<svg xmlns="http://www.w3.org/2000/svg" width="9.969" height="6" viewBox="0 0 9.969 6">
  <defs>
    <style>
      .cls-1 {
        fill: #088474;
        fill-rule: evenodd;
      }
    </style>
  </defs>
  <path id="arrow_left_copy" data-name="arrow left copy" class="cls-1" d="M438.643,1280.12l-4.248,4.27a0.5,0.5,0,0,0-.022.66l0.587,0.68a0.4,0.4,0,0,0,.608.02l4.249-4.27a0.5,0.5,0,0,0,.021-0.66l-0.587-.67A0.411,0.411,0,0,0,438.643,1280.12Zm-3.587,4.65h-0.379a0.4,0.4,0,0,0-.379.41v0.41a0.393,0.393,0,0,0,.379.41h0.379a0.394,0.394,0,0,0,.38-0.41v-0.41A0.4,0.4,0,0,0,435.056,1284.77Zm0.758-1.84a1.58,1.58,0,0,1-.948.62,1.6,1.6,0,0,1-.948-0.62l0.19,1.23h1.517l0.379-.82Zm-4.567-2.74,4.24,4.31a0.511,0.511,0,0,1,.021.67l-0.586.68a0.4,0.4,0,0,1-.607.02l-4.239-4.31a0.5,0.5,0,0,1-.021-0.66l0.585-.68A0.409,0.409,0,0,1,431.247,1280.19Z" transform="translate(-429.969 -1280)"/>
</svg>
