<?xml version="1.0" encoding="utf-8"?>
<!-- Generator: Adobe Illustrator 16.0.0, SVG Export Plug-In . SVG Version: 6.00 Build 0)  -->
<!DOCTYPE svg PUBLIC "-//W3C//DTD SVG 1.1//EN" "http://www.w3.org/Graphics/SVG/1.1/DTD/svg11.dtd">
<svg version="1.1" id="Line_graph" xmlns="http://www.w3.org/2000/svg" xmlns:xlink="http://www.w3.org/1999/xlink" x="0px" y="0px"
	 width="3770.926px" height="511.946px" viewBox="-2653.86 -1998.905 3770.926 511.946"
	 enable-background="new -2653.86 -1998.905 3770.926 511.946" xml:space="preserve">
<path fill="#D8C172" d="M542.321-1703.314l40.568,10.061l30.538-47.949l-58.04-14.347c-14.525-3.602-29.198,5.179-32.8,19.645
	C518.986-1721.529,527.795-1706.945,542.321-1703.314z"/>
<path fill="#D8C172" d="M1071.852-1695.546l-132.837,119.532l-156.172-120.871c-2.976-2.263-6.398-3.959-10.06-4.822l-20.775-5.179
	l-30.567,47.95l32.74,8.125l169.565,131.2c4.94,3.78,10.774,5.625,16.638,5.625c6.519,0,13.037-2.321,18.126-6.905l149.654-134.741
	c11.071-9.941,11.935-26.967,1.904-38.009C1100.038-1704.653,1082.953-1705.546,1071.852-1695.546z"/>
<path fill="#68ABCE" d="M780.254-1826.864l145.456,93.132c12.293,7.857,28.604,4.583,36.907-7.322l149.624-215.551
	c8.513-12.263,5.447-29.079-6.876-37.502c-12.322-8.483-29.139-5.417-37.651,6.846l-134.771,194.091l-146.319-93.667
	c-6.071-3.899-13.424-5.179-20.478-3.661c-7.024,1.578-13.155,5.864-16.995,11.906L526.01-1528.361
	c-8.036,12.561-4.286,29.258,8.334,37.205c4.464,2.857,9.494,4.197,14.465,4.197c8.959,0,17.739-4.436,22.858-12.501
	L780.254-1826.864z"/>
<g id="_x32_vZrDs.tif">
	<g>
		<path fill="#FFFFFF" d="M-2192.143-1857.276l-56.03,353.343h-93.384l29.782-187.272l-86.821,108.527h-63.602l-53.506-110.041
			l-30.792,188.786h-93.383l56.03-353.343h84.803l80.764,165.566l131.747-165.566H-2192.143z"/>
		<path fill="#FFFFFF" d="M-2075.038-1496.361c-74.707,0-133.261-47.954-119.127-136.794
			c13.125-82.783,81.269-120.642,151.938-120.642c69.659,0,132.756,47.954,118.622,136.794
			C-1936.729-1534.219-2009.417-1496.361-2075.038-1496.361z M-2067.971-1572.077c34.325,0,53.001-23.22,58.049-53.506
			c3.533-24.229-3.029-52.497-38.868-52.497c-34.829,0-54.011,23.22-59.059,53.506
			C-2111.382-1600.345-2104.315-1572.077-2067.971-1572.077z"/>
		<path fill="#FFFFFF" d="M-1910.487-1503.933l38.363-242.292h85.812l-17.667,110.546l102.974-110.546h76.221l-38.363,242.292
			h-85.812l17.163-109.537l-102.47,109.537H-1910.487z M-1741.386-1771.464c-37.354,0-63.097-11.105-82.783-23.22l9.591-61.078
			c24.734,14.134,48.963,21.201,77.735,21.201c28.772,0,60.068-6.057,88.84-21.201l-9.59,61.078
			C-1676.27-1782.569-1704.033-1771.464-1741.386-1771.464z"/>
		<path fill="#FFFFFF" d="M-1319.408-1857.276c82.278,0,150.928,30.792,135.785,126.699
			c-14.134,89.85-77.231,115.594-167.081,115.594h-51.487l-17.667,111.051h-93.383l56.03-353.343H-1319.408z M-1323.447-1776.512
			h-53.001l-13.124,80.764h51.992c31.296,0,54.516-11.105,59.059-40.887C-1272.969-1770.454-1297.703-1776.512-1323.447-1776.512z"
			/>
		<path fill="#FFFFFF" d="M-1048.844-1753.797c100.955,0,126.699,81.774,99.945,154.461h-159.509
			c5.552,27.763,35.334,37.354,68.145,37.354s57.04-5.048,75.716-14.134l-10.095,65.621c-19.687,8.076-48.458,14.134-87.831,14.134
			c-79.755,0-139.318-50.478-126.699-135.28C-1176.048-1720.986-1104.875-1753.797-1048.844-1753.797z M-1051.368-1691.709
			c-25.744,0-45.43,18.172-49.468,40.887h81.774C-1014.52-1664.956-1019.063-1691.709-1051.368-1691.709z"/>
		<path fill="#FFFFFF" d="M-930.73-1503.933l38.363-242.292h85.812l-17.667,110.546l102.974-110.546h76.221l-38.363,242.292h-85.812
			l17.163-109.537l-102.47,109.537H-930.73z M-761.63-1771.464c-37.354,0-63.097-11.105-82.783-23.22l9.591-61.078
			c24.734,14.134,48.963,21.201,77.735,21.201c28.772,0,60.068-6.057,88.84-21.201l-9.59,61.078
			C-696.513-1782.569-724.276-1771.464-761.63-1771.464z"/>
		<path fill="#FFFFFF" d="M-587.491-1503.933l27.258-171.624h-70.669l11.105-70.668h227.149l-11.105,70.668h-70.669l-27.258,171.624
			H-587.491z"/>
		<path fill="#FFFFFF" d="M-406.281-1503.933l38.363-242.292h85.812l-17.667,110.546l102.974-110.546h76.221l-38.363,242.292
			h-85.812l17.163-109.537l-102.47,109.537H-406.281z"/>
		<path fill="#FFFFFF" d="M-115.538-1503.933l38.363-242.292H8.636l-13.629,85.812h75.716l13.629-85.812h85.812l-38.363,242.292
			H45.99l13.629-85.812h-75.716l-13.629,85.812H-115.538z"/>
		<path fill="#FFFFFF" d="M175.204-1503.933l38.363-242.292h188.786l-11.104,70.668H288.274l-27.258,171.624H175.204z"/>
	</g>
</g>
</svg>
