<svg xmlns="http://www.w3.org/2000/svg" width="75.031" height="75" viewBox="0 0 75.031 75">
  <metadata><?xpacket begin="﻿" id="W5M0MpCehiHzreSzNTczkc9d"?>
<x:xmpmeta xmlns:x="adobe:ns:meta/" x:xmptk="Adobe XMP Core 5.6-c138 79.159824, 2016/09/14-01:09:01        ">
   <rdf:RDF xmlns:rdf="http://www.w3.org/1999/02/22-rdf-syntax-ns#">
      <rdf:Description rdf:about=""/>
   </rdf:RDF>
</x:xmpmeta>
                                                                                                    
                                                                                                    
                                                                                                    
                                                                                                    
                                                                                                    
                                                                                                    
                                                                                                    
                                                                                                    
                                                                                                    
                                                                                                    
                                                                                                    
                                                                                                    
                                                                                                    
                                                                                                    
                                                                                                    
                                                                                                    
                                                                                                    
                                                                                                    
                                                                                                    
                                                                                                    
                           
<?xpacket end="w"?></metadata>
<defs>
    <style>
      .cls-1 {
        fill: #3465af;
        fill-rule: evenodd;
      }
    </style>
  </defs>
  <path id="newsletter_icon" data-name="newsletter icon" class="cls-1" d="M245.926,5438.21c0.31,1.7-.425,3.3-0.818,4.91-5.313,21.74-10.946,43.58-16.359,65.35-0.371,1.5-.506,3.12-1.363,4.45-0.916.3-1.34-.35-1.818-0.82-5.681-5.46-10.79-10.88-16.9-16.43-0.675-.61-1.907-2.44-2.636-2.45-0.543-.01-1.517,1.28-2,1.82-3.017,3.36-5.83,6.5-8.816,9.98-0.828.97-2.706,3.8-3.817,3.45-1.139-.35-0.429-3.73-0.273-5.17,0.634-5.86,1.241-11.12,1.454-16.8a7.415,7.415,0,0,0-2.726-.99c-5.464-1.81-10.666-3.59-16.359-5.45-0.928-.3-2.288-0.57-2.454-1.18-0.253-.93.785-1.39,1.727-1.91,22.321-12.1,44.684-24.34,67.072-36.21,1.522-.81,3.16-1.63,4.544-2.55A1.517,1.517,0,0,1,245.926,5438.21Zm-22.266,69.26c0.632,0.61,1.8,2.33,2.545,2,0.374-.16.47-0.88,0.727-1.91,5.245-20.92,10.339-41.06,15.541-61.99,0.138-.56,1.6-4.54,0-4.09a23.859,23.859,0,0,0-4.272,2.27c-12.628,6.73-25.125,13.75-37.808,20.51-7.858,4.2-15.339,8.21-23.175,12.53-0.347.19-1.881,0.79-1.818,1.46,0.055,0.57,1.1.82,1.909,1.09,4.881,1.61,9.272,3,13.905,4.53a8.647,8.647,0,0,0,2.454.64c0.628-.09,1.71-1.31,2.454-1.91,11.616-9.37,22.877-18.48,34.445-27.86,0.664-.54,1.974-1.85,2.727-1.73,1.795,0.28-.139,2.66-0.637,3.36-3.856,5.43-8.118,11.16-11.815,16.25-4.634,6.38-9.06,12.18-13.45,18.7C212.7,5496.91,218.034,5502.12,223.66,5507.47Zm0.818-45.11a30.489,30.489,0,0,0-3.817,2.9c-7.362,6.02-15,12.09-22.267,18.07-0.753.62-3.336,2.3-3.635,3.09a10.461,10.461,0,0,0-.091,1.9c-0.373,3.77-.742,7.41-1.182,11.44-0.17,1.56-.534,3.36.182,3.54,0.7,0.17,1.654-1.36,2.363-2.18,2.184-2.52,4.438-4.89,6.453-7.17a127.454,127.454,0,0,0,7.907-10.26c4.451-6.22,9.02-12.32,13.36-18.43a6.19,6.19,0,0,0,1.545-2.9A0.7,0.7,0,0,0,224.478,5462.36Z" transform="translate(-171 -5438)"/>
</svg>
