<svg xmlns="http://www.w3.org/2000/svg" width="12" height="12" viewBox="0 0 12 12">
  <metadata><?xpacket begin="﻿" id="W5M0MpCehiHzreSzNTczkc9d"?>
<x:xmpmeta xmlns:x="adobe:ns:meta/" x:xmptk="Adobe XMP Core 5.6-c138 79.159824, 2016/09/14-01:09:01        ">
   <rdf:RDF xmlns:rdf="http://www.w3.org/1999/02/22-rdf-syntax-ns#">
      <rdf:Description rdf:about=""/>
   </rdf:RDF>
</x:xmpmeta>
                                                                                                    
                                                                                                    
                                                                                                    
                                                                                                    
                                                                                                    
                                                                                                    
                                                                                                    
                                                                                                    
                                                                                                    
                                                                                                    
                                                                                                    
                                                                                                    
                                                                                                    
                                                                                                    
                                                                                                    
                                                                                                    
                                                                                                    
                                                                                                    
                                                                                                    
                                                                                                    
                           
<?xpacket end="w"?></metadata>
<defs>
    <style>
      .cls-1 {
        fill: #333;
        fill-rule: evenodd;
      }
    </style>
  </defs>
  <path id="_" data-name="" class="cls-1" d="M1123.74,1286.16l-2.89-2.86a4.526,4.526,0,0,0,.7-2.46,4.954,4.954,0,0,0-4.87-4.83,4.7,4.7,0,0,0-4.69,4.71,4.949,4.949,0,0,0,4.84,4.83,4.8,4.8,0,0,0,2.37-.64l2.9,2.89a0.756,0.756,0,0,0,1.03,0l0.7-.7A0.637,0.637,0,0,0,1123.74,1286.16Zm-10.32-5.44a3.258,3.258,0,0,1,3.26-3.25,3.5,3.5,0,0,1,3.41,3.37,3.265,3.265,0,0,1-3.26,3.28A3.521,3.521,0,0,1,1113.42,1280.72Z" transform="translate(-1112 -1276)"/>
</svg>
