<svg xmlns="http://www.w3.org/2000/svg" width="16" height="16" viewBox="0 0 16 16">
  <defs>
    <style>
      .cls-1 {
        fill: #fff;
        fill-rule: evenodd;
      }
    </style>
  </defs>
  <path id="_" data-name="" class="cls-1" d="M819.655,43.544L815.8,39.735a6.077,6.077,0,0,0,.933-3.281,6.608,6.608,0,0,0-6.5-6.442,6.257,6.257,0,0,0-6.251,6.28,6.6,6.6,0,0,0,6.454,6.442,6.478,6.478,0,0,0,3.166-.851l3.857,3.849a1.007,1.007,0,0,0,1.38,0l0.934-.931A0.866,0.866,0,0,0,819.655,43.544Zm-13.761-7.252a4.344,4.344,0,0,1,4.343-4.335,4.664,4.664,0,0,1,4.547,4.5,4.353,4.353,0,0,1-4.344,4.375A4.7,4.7,0,0,1,805.894,36.292Z" transform="translate(-804 -30)"/>
</svg>
