<svg xmlns="http://www.w3.org/2000/svg" width="10" height="6" viewBox="0 0 10 6">
  <metadata><?xpacket begin="﻿" id="W5M0MpCehiHzreSzNTczkc9d"?>
<x:xmpmeta xmlns:x="adobe:ns:meta/" x:xmptk="Adobe XMP Core 5.6-c138 79.159824, 2016/09/14-01:09:01        ">
   <rdf:RDF xmlns:rdf="http://www.w3.org/1999/02/22-rdf-syntax-ns#">
      <rdf:Description rdf:about=""/>
   </rdf:RDF>
</x:xmpmeta>
                                                                                                    
                                                                                                    
                                                                                                    
                                                                                                    
                                                                                                    
                                                                                                    
                                                                                                    
                                                                                                    
                                                                                                    
                                                                                                    
                                                                                                    
                                                                                                    
                                                                                                    
                                                                                                    
                                                                                                    
                                                                                                    
                                                                                                    
                                                                                                    
                                                                                                    
                                                                                                    
                           
<?xpacket end="w"?></metadata>
<defs>
    <style>
      .cls-1 {
        fill: #555;
        fill-rule: evenodd;
      }
    </style>
  </defs>
  <path id="arrow_left_copy" data-name="arrow left copy" class="cls-1" d="M780.689,1280.12l-4.25,4.27a0.5,0.5,0,0,0-.022.66l0.588,0.68a0.4,0.4,0,0,0,.608.02l4.25-4.27a0.5,0.5,0,0,0,.021-0.66l-0.587-.67A0.411,0.411,0,0,0,780.689,1280.12Zm-3.588,4.65h-0.38a0.4,0.4,0,0,0-.379.41v0.41a0.393,0.393,0,0,0,.379.41h0.38a0.393,0.393,0,0,0,.379-0.41v-0.41A0.4,0.4,0,0,0,777.1,1284.77Zm0.758-1.84a1.58,1.58,0,0,1-.948.62,1.6,1.6,0,0,1-.949-0.62l0.19,1.23h1.518l0.379-.82Zm-4.569-2.74,4.241,4.31a0.509,0.509,0,0,1,.021.67l-0.585.68a0.4,0.4,0,0,1-.607.02l-4.241-4.31a0.5,0.5,0,0,1-.021-0.66l0.585-.68A0.409,0.409,0,0,1,773.29,1280.19Z" transform="translate(-772 -1280)"/>
</svg>
