<?xml version="1.0" encoding="utf-8"?>
<!-- Svg Vector Icons : http://www.onlinewebfonts.com/icon -->
<!DOCTYPE svg PUBLIC "-//W3C//DTD SVG 1.1//EN" "http://www.w3.org/Graphics/SVG/1.1/DTD/svg11.dtd">
<svg version="1.1" xmlns="http://www.w3.org/2000/svg" xmlns:xlink="http://www.w3.org/1999/xlink" x="0px" y="0px" viewBox="0 0 1000 1000" enable-background="new 0 0 1000 1000" xml:space="preserve">
<metadata> Svg Vector Icons : http://www.onlinewebfonts.com/icon </metadata>
<g><path d="M206,990c-30.6,0-122.5,0-122.5,0C44.8,990,10,957.7,10,918V82c0-39.7,31.5-72,70.2-72h741.6c38.7,0,70.2,32.3,70.2,72v173c0,24.5,0,49-36.8,49s-36.8-24.5-36.8-49V108c0-15.1-9.7-24.5-24.5-24.5H108c-14.7,0-24.5,9.3-24.5,24.5v784c0,15,9.7,24.5,24.5,24.5h98c24.5,0,49,0,49,36.8S230.1,990,206,990z"/><path d="M423.5,990c-6,0-11.7-2.5-15.9-7.1c-5-5.6-6.8-13.3-4.9-20.7l39-142.6c1-3.6,2.9-7,5.5-9.6l390.5-397.8c13.5-13.7,35.3-13.7,48.8,0l93.4,95.1c6.5,6.7,10.1,15.5,10.1,24.8c0,9.4-3.6,18.2-10.1,24.8l-51.2,52.4c-4,4.1-9.5,6.4-15.2,6.4c-5.6,0-11.1-2.3-15.1-6.4l-63.1-64.3c-8.4-8.6-8.4-22.4,0-31c8.4-8.6,22-8.6,30.4,0l47.9,48.8l30.1-30.6l-81.6-83L481.7,836.9l-28.2,103.3l110.4-21.1l221.2-225.4c4.8-5.3,48.5-51.2,102.4-55.2c11.8-0.9,22.1,8.2,23,20.2c0.9,12.1-8,22.5-19.9,23.4c-38.5,2.9-73.9,41.2-74.3,41.5c-0.2,0.2-0.4,0.5-0.7,0.7L589.5,954.8c-3,3.1-6.9,5.2-11.2,6.1l-150.8,28.8C426.1,989.9,424.8,990,423.5,990L423.5,990z"/><path d="M391.4,990"/><path d="M745,193.8c0,20.3-16.5,36.8-36.8,36.8H193.8c-20.3,0-36.8-16.4-36.8-36.8l0,0c0-20.3,16.5-36.8,36.8-36.8h514.5C728.5,157,745,173.4,745,193.8L745,193.8z"/><path d="M647,340.8c0,20.3-16.5,36.8-36.8,36.8H193.8c-20.3,0-36.8-16.4-36.8-36.8l0,0c0-20.3,16.5-36.8,36.8-36.8h416.5C630.5,304,647,320.4,647,340.8L647,340.8z"/><path d="M524.5,487.8c0,20.3-16.5,36.8-36.8,36.8h-294c-20.3,0-36.8-16.5-36.8-36.8l0,0c0-20.3,16.5-36.8,36.8-36.8h294C508,451,524.5,467.5,524.5,487.8L524.5,487.8z"/></g>
</svg>