<?xml version="1.0" encoding="utf-8"?>
<!-- Svg Vector Icons : http://www.onlinewebfonts.com/icon -->
<!DOCTYPE svg PUBLIC "-//W3C//DTD SVG 1.1//EN" "http://www.w3.org/Graphics/SVG/1.1/DTD/svg11.dtd">
<svg width='16px' height='16px' version="1.1" xmlns="http://www.w3.org/2000/svg" xmlns:xlink="http://www.w3.org/1999/xlink" x="0px" y="0px" viewBox="0 0 1000 1000" enable-background="new 0 0 1000 1000" xml:space="preserve">
<metadata> Svg Vector Icons : http://www.onlinewebfonts.com/icon </metadata>
<g><path fill='#fff' d="M970.8,283.3c25.8-26.6,25.7-68.9-0.6-95.3c-26.3-26.3-68.7-26.4-95.3-0.6l-0.2-0.2L386,676.1L125.9,416l0,0c-26.6-26.4-69.5-26.3-96,0.1c-26.5,26.5-26.5,69.5-0.1,96.1l0,0l0.1,0.1c0,0,0,0.1,0.1,0.1s0.1,0,0.1,0.1l310.9,311l8.6-8.6c26.5,23.2,66.5,22.9,91.9-2l0.1,0.1l0.4-0.4c0.1-0.1,0.1-0.1,0.2-0.1c0.1-0.1,0.1-0.1,0.1-0.2L970,284.2c0.1,0,0.1,0,0.1-0.1c0-0.1,0.1-0.1,0.1-0.1l0.7-0.7L970.8,283.3z"/></g>
</svg>