<?xml version="1.0" encoding="utf-8"?>
<!DOCTYPE svg PUBLIC "-//W3C//DTD SVG 1.1//EN" "http://www.w3.org/Graphics/SVG/1.1/DTD/svg11.dtd">
<svg width='16px' height='16px' version="1.1" xmlns="http://www.w3.org/2000/svg" xmlns:xlink="http://www.w3.org/1999/xlink" x="0px" y="0px" viewBox="0 0 1000 1000" enable-background="new 0 0 1000 1000" xml:space="preserve">
<g><g transform="translate(0.000000,511.000000) scale(0.100000,-0.100000)"><path fill='#fff' d="M9568.3,4358.5C8863.5,4022,7288.8,2711.9,5667.5,1105.4c-956.7-944-1676.3-1739.8-2097.5-2317.6c-72-99.5-139.7-179.9-150.3-179.9c-8.5,0-114.3,129.1-232.8,285.7c-330.2,436-592.6,740.8-941.9,1092.1C1572.1,663.1,1034.5,1022.9,655.6,1048.3c-173.5,10.6-266.7-23.3-385.2-139.7C16.4,652.5,46,191.1,361.4-484.1c273-584.2,937.6-1574.7,1475.2-2199.1c402.1-465.6,929.2-941.9,1280.5-1157.7c80.4-50.8,177.8-127,215.9-169.3c88.9-101.6,260.3-186.3,376.7-186.3c283.6,0,620.1,270.9,1200.1,965.1c423.3,505.9,1578.9,2027.6,2216,2918.7c1900.7,2652,2967.4,4482.8,2745.1,4705C9828.6,4434.7,9701.6,4419.9,9568.3,4358.5z"/></g></g>
</svg>