<?xml version="1.0" encoding="utf-8"?>
<!-- Svg Vector Icons : http://www.onlinewebfonts.com/icon -->
<!DOCTYPE svg PUBLIC "-//W3C//DTD SVG 1.1//EN" "http://www.w3.org/Graphics/SVG/1.1/DTD/svg11.dtd">
<svg version="1.1" xmlns="http://www.w3.org/2000/svg" xmlns:xlink="http://www.w3.org/1999/xlink" x="0px" y="0px" viewBox="0 0 1000 1000" enable-background="new 0 0 1000 1000" xml:space="preserve">
<metadata> Svg Vector Icons : http://www.onlinewebfonts.com/icon </metadata>
<g><g transform="translate(0.000000,512.000000) scale(0.100000,-0.100000)"><path d="M5755.1,4998.9c-870.9-76.6-1445.1-539.8-1680.5-1347.5c-112.9-392.4-143.5-738.8-143.5-1649.9V1345h-918.7h-918.8V426.3v-918.8h918.8H3931v-2143.7V-4780h918.8h918.8v2143.7v2143.7h914.9h916.9l153.1,918.8l153.1,918.8h-1070h-1070l5.8,608.7c7.6,572.3,9.6,612.5,49.7,721.6c84.2,223.9,231.6,369.4,459.4,455.5c101.4,38.3,151.2,40.2,717.8,47.9l606.8,5.7v918.8V5020l-836.5-1.9C6308.3,5016.2,5850.8,5008.5,5755.1,4998.9z"/></g></g>
</svg>