<?xml version="1.0" encoding="utf-8"?>
<!-- Svg Vector Icons : http://www.onlinewebfonts.com/icon -->
<!DOCTYPE svg PUBLIC "-//W3C//DTD SVG 1.1//EN" "http://www.w3.org/Graphics/SVG/1.1/DTD/svg11.dtd">
<svg version="1.1" xmlns="http://www.w3.org/2000/svg" xmlns:xlink="http://www.w3.org/1999/xlink" x="0px" y="0px" viewBox="0 0 1000 1000" enable-background="new 0 0 1000 1000" xml:space="preserve">
<metadata> Svg Vector Icons : http://www.onlinewebfonts.com/icon </metadata>
<g><path d="M981.7,941.4L702.8,662.5c30.4-35,54.1-74.6,70.5-117.6c17-44.7,25.6-91.9,25.6-140.4c0-105.4-41-204.4-115.5-278.9C608.8,51,509.8,10,404.4,10C299.1,10,200,51,125.5,125.5C51,200,10,299.1,10,404.4c0,105.4,41,204.4,115.5,278.9c74.5,74.5,173.6,115.5,278.9,115.5c48.5,0,95.7-8.6,140.4-25.6c43-16.4,82.6-40.1,117.6-70.5l278.9,278.9c5.4,5.4,12.5,8.4,20.2,8.4c7.6,0,14.8-3,20.1-8.3c5.4-5.4,8.3-12.5,8.3-20.1C990,953.9,987,946.7,981.7,941.4z M643.3,642.8l-0.5,0.5c-63.7,63.6-148.3,98.6-238.3,98.6c-90.1,0-174.9-35.1-238.6-98.8C102.1,579.3,67,494.6,67,404.4c0-90.1,35.1-174.9,98.8-238.6C229.6,102.1,314.3,67,404.4,67c90.1,0,174.9,35.1,238.6,98.8c63.7,63.7,98.8,148.5,98.8,238.6C741.9,494.4,706.9,579.1,643.3,642.8z"/></g>
</svg>