<?xml version="1.0" encoding="utf-8"?>
<!-- Svg Vector Icons : http://www.onlinewebfonts.com/icon -->
<!DOCTYPE svg PUBLIC "-//W3C//DTD SVG 1.1//EN" "http://www.w3.org/Graphics/SVG/1.1/DTD/svg11.dtd">
<svg version="1.1" xmlns="http://www.w3.org/2000/svg" xmlns:xlink="http://www.w3.org/1999/xlink" x="0px" y="0px" viewBox="0 0 1000 1000" enable-background="new 0 0 1000 1000" xml:space="preserve">
<metadata> Svg Vector Icons : http://www.onlinewebfonts.com/icon </metadata>
<g><g id="_x37_935ec95c421cee6d86eb22ecd125aef"><path d="M232.5,968.4v-632H22.4v632L232.5,968.4L232.5,968.4z M127.5,250.1c73.2,0,118.8-48.6,118.8-109.2c-1.4-62-45.6-109.2-117.5-109.2C57,31.6,10,78.8,10,140.8c0,60.7,45.6,109.2,116.1,109.2L127.5,250.1L127.5,250.1z M348.7,968.4c0,0,2.8-572.7,0-632h210.1V428h-1.4c27.6-43.1,77.4-106.5,190.7-106.5C886.4,321.5,990,411.8,990,606v362.4H779.9V630.2c0-85-30.4-142.9-106.4-142.9c-58,0-92.6,39.1-107.8,76.9c-5.6,13.4-6.9,32.3-6.9,51.2v353H348.7L348.7,968.4z"/></g></g>
</svg>