<?xml version="1.0" encoding="utf-8"?>
<!-- Generator: Adobe Illustrator 21.1.0, SVG Export Plug-In . SVG Version: 6.00 Build 0)  -->
<svg version="1.1" id="Слой_1" xmlns="http://www.w3.org/2000/svg" xmlns:xlink="http://www.w3.org/1999/xlink" x="0px" y="0px"
	 viewBox="0 0 640 480" xml:space="preserve">
<style type="text/css">
	.st0{fill:none;}
	.st1{fill:#C9283E;}
</style>
<line class="st0" x1="53" y1="301" x2="553" y2="297"/>
<path d="M244.7,263.2h-60.5c0.4,6.8,2.7,12,7,15.7c4.3,3.7,10,5.6,17.3,5.6c9,0,15.9-2.3,20.6-7l7.7,15.1c-7,5.6-17.4,8.5-31.2,8.5
	c-12.9,0-23.1-3.8-30.7-11.4c-7.5-7.6-11.3-18.1-11.3-31.7c0-13.3,4.1-24.2,12.4-32.4c8.3-8.3,18.2-12.4,29.7-12.4
	c12.3,0,22.2,3.7,29.6,11c7.4,7.3,11.2,16.7,11.2,28C246.3,254.6,245.8,258.3,244.7,263.2z M184.8,248.3h41.6
	c-1.4-12.4-8.2-18.6-20.6-18.6C194.6,229.7,187.6,235.9,184.8,248.3z"/>
<path d="M297.3,301.1h-7.1l-38.3-86.3h21.7l20.3,51.8l21.8-51.8h21L297.3,301.1z"/>
<path d="M358,301v-68.2h-10.8v-16.2H378V301H358z M368.2,183.9c3.2,0,5.9,1.1,8.1,3.3c2.2,2.2,3.4,4.9,3.4,8.1
	c0,3.2-1.1,5.8-3.4,8.1c-2.2,2.2-4.9,3.3-8.1,3.3s-5.9-1.1-8.1-3.3c-2.2-2.2-3.4-4.9-3.4-8.1c0-3.2,1.1-5.8,3.4-8.1
	C362.3,185,365,183.9,368.2,183.9z"/>
<path d="M448.2,291c-1.8,3-4.9,5.4-9.4,7.2s-9.1,2.8-14,2.8c-9.1,0-16.3-2.3-21.5-6.8c-5.2-4.6-7.8-11-7.8-19.4
	c0-9.8,3.7-17.5,11-23s17.8-8.3,31.4-8.3c2.3,0,5.1,0.4,8.2,1.2c0-10-6.3-15-18.9-15c-7.4,0-13.7,1.2-18.7,3.7l-4.3-15.4
	c6.8-3.3,14.9-4.9,24.3-4.9c12.9,0,22.4,2.9,28.4,8.8c6,5.9,9,17,9,33.4v18.1c0,11.3,2.3,18.4,6.8,21.3c-1.6,2.8-3.5,4.6-5.5,5.3
	s-4.3,1-6.9,1c-2.8,0-5.4-1.1-7.7-3.2C450.5,295.8,449,293.5,448.2,291z M446.3,259.6c-3.4-0.7-5.9-1-7.6-1
	c-15.6,0-23.4,5.1-23.4,15.4c0,7.6,4.4,11.4,13.2,11.4c11.9,0,17.8-5.9,17.8-17.8V259.6z"/>
<path d="M541.9,301v-48.7c0-7.2-1.4-12.4-4.2-15.7c-2.8-3.3-7.3-5-13.6-5c-2.9,0-6,0.8-9.3,2.4c-3.3,1.6-5.9,3.6-7.7,6.1V301h-19.8
	v-84.3h14.2l3.6,7.9c5.4-6.3,13.3-9.4,23.8-9.4c10.1,0,18,3,23.9,9c5.8,6,8.7,14.4,8.7,25.1V301H541.9z"/>
<g>
	<g>
		<path class="st1" d="M43.5,299v-13.5l27.6-35.4c0.6-0.4,1.1-0.6,1.7-0.6c1,0,2,0.6,2.4,1.6l10.8,26.5c0.3,0.8,1,1.2,1.9,1.2
			c0.1,0,0.1,0,0.2,0c0.9-0.1,1.6-0.7,1.8-1.5l27.5-113.7c0.2-0.8-0.1-1.6-0.7-2c-0.4-0.3-0.8-0.4-1.2-0.4c-0.3,0-0.6,0.1-0.9,0.2
			l-70.9,37.2V142c19.5-0.7,32.1-1,37.6-1c21.8,0,39.3,6.7,51.9,19.9c12.7,13.2,19.1,31.1,19.1,53.1c0,28.3-6.6,49.8-19.5,63.9
			c-12.9,14-32.7,21.1-58.7,21.1H43.5z"/>
		<path d="M81.2,143c21.2,0,38.2,6.5,50.5,19.3c12.3,12.8,18.5,30.2,18.5,51.8c0,55.8-25,83-76.3,83H45.5v-10.8l27-34.6
			c0.1-0.1,0.3-0.1,0.4-0.1c0.3,0,0.4,0.2,0.5,0.4l10.8,26.5c0.6,1.5,2.1,2.5,3.7,2.5c0.1,0,0.2,0,0.3,0c1.7-0.1,3.2-1.4,3.6-3
			l27.5-113.7c0.4-1.5-0.2-3.1-1.4-4.1c-0.7-0.6-1.6-0.8-2.5-0.8c-0.6,0-1.3,0.2-1.9,0.5l-68,35.7V144C63.9,143.3,75.9,143,81.2,143
			 M81.2,139c-5.8,0-19,0.4-39.6,1.1v61.8l73.9-38.8L87.9,276.9l-10.8-26.5c-0.7-1.7-2.3-2.9-4.2-2.9c-1,0-2.1,0.3-3.1,1.1
			l-28.2,36.2V301h32.4c53.5,0,80.3-29,80.3-87c0-22.7-6.6-40.9-19.7-54.5C121.5,145.8,103.7,139,81.2,139L81.2,139z"/>
	</g>
</g>
</svg>
