<?xml version="1.0" encoding="utf-8"?>
<!-- Generator: Adobe Illustrator 21.1.0, SVG Export Plug-In . SVG Version: 6.00 Build 0)  -->
<svg version="1.1" id="Слой_1" xmlns="http://www.w3.org/2000/svg" xmlns:xlink="http://www.w3.org/1999/xlink" x="0px" y="0px"
	 viewBox="0 0 32 32" style="enable-background:new 0 0 32 32;" xml:space="preserve">
<style type="text/css">
	.st0{fill:#540032;}
	.st1{fill:#C9283E;}
</style>
<path class="st0" d="M25,32H7c-3.9,0-7-3.2-7-7V7c0-3.9,3.2-7,7-7H25c3.9,0,7,3.2,7,7V25C32,28.8,28.8,32,25,32z"/>
<g>
	<g>
		<path class="st1" d="M22.7,6.2c-2.2-2.3-5.2-3.5-9-3.5c-1,0-3.2,0.1-6.7,0.2c0,0,0,10.4,0,10.4l12.4-6.5l-4.6,19.2L13,21.5
			c-0.2-0.4-0.7-0.7-1.2-0.3L7,27.3V30h5.5c9,0,13.5-4.9,13.5-14.7C26,11.5,24.9,8.5,22.7,6.2z"/>
	</g>
</g>
</svg>
